<?xml version="1.0" encoding="utf-8"?>
<!-- Generator: Adobe Illustrator 27.6.1, SVG Export Plug-In . SVG Version: 6.00 Build 0)  -->
<svg version="1.1" id="Capa_2" xmlns="http://www.w3.org/2000/svg" xmlns:xlink="http://www.w3.org/1999/xlink" x="0px" y="0px"
	 viewBox="0 0 288 278.22" style="enable-background:new 0 0 288 278.22;" xml:space="preserve">
<style type="text/css">
	.st0{fill:none;}
	.st1{fill:#DA1446;}
	.st2{fill:#DA1446;stroke:url(#Unnamed_Pattern);stroke-miterlimit:10;}
	.st3{fill:#0866FF;}
	.st4{fill:#FFFFFF;}
	.st5{fill:#0967FF;}
	.st6{fill:#0C68FF;}
	.st7{fill:#0D69FF;}
	.st8{fill:#ECF1F8;}
	.st9{fill:#EDF1F8;}
	.st10{fill:#0765FF;}
	.st11{fill:#F4F8FF;}
	.st12{fill:#1971FF;}
	.st13{fill:#A444FE;}
	.st14{fill:#010101;}
	.st15{fill:#FAFAFA;}
	.st16{fill:#131313;}
	.st17{fill:#040404;}
	.st18{fill:#2A2A2A;}
</style>
<pattern  y="-147.65" width="321.11" height="534.54" patternUnits="userSpaceOnUse" id="Unnamed_Pattern" viewBox="1.68 -534.54 321.11 534.54" style="overflow:visible;">
	<g>
		<rect x="1.68" y="-534.54" class="st0" width="321.11" height="534.54"/>
		<g>
			<path class="st1" d="M322.79-396.48c-3.41-7.72-4.57-16.12-6.4-24.2c-2.74-12.12-9.22-22.28-14.18-33.25
				c-4.41-9.77-11.42-17.82-18.18-25.56c-6.74-7.71-14.64-14.74-22.87-21.34c-13.51-10.84-28.51-18.51-44.33-24.59
				c-10.66-4.1-22.16-5.91-33.47-7.92c-1.11-0.2-2.14-0.78-3.21-1.19c-11.4,0-22.79,0-34.19,0c-11.03,2.36-22.16,4.33-33.06,7.2
				c-12.34,3.25-23.46,9.64-34.32,16.06c-11.69,6.91-22.08,15.61-31.64,25.53c-11.32,11.74-20.87,24.4-27.95,39.06
				c-6.13,12.67-11.36,25.42-14.26,39.46C0-384.24,0.99-361.73,6.2-339.24c3.49,15.06,10.19,29.11,15.95,43.36
				c9.22,22.81,20.46,44.81,32.4,66.32c7.57,13.63,15.23,27.26,23.13,40.73c6.58,11.21,13.34,22.35,19.97,33.53
				c11.32,19.11,23.92,37.46,36.18,56.01c8.44,12.78,17.34,25.26,25.75,38.06c2.56,3.9,3.8,3.01,5.93-0.18
				c8.43-12.63,17.39-24.92,25.44-37.78c7.44-11.89,15.6-23.29,22.61-35.49c5.21-9.06,11.21-17.75,16.77-26.67
				c10.53-16.86,20.7-33.92,30.31-51.33c9.4-17.03,18.56-34.16,27.07-51.68c6.31-12.98,12.32-26.05,17.84-39.37
				c4.4-10.62,9.04-21.07,11.45-32.48c1.43-6.77,2.72-13.77,5.77-20.15C322.79-369.73,322.79-383.11,322.79-396.48z M258.58-372.93
				c-0.77,52.84-44.45,95.59-95.83,95.7c-54.69,0.11-97.33-44.61-97.05-97.73c0.25-49.76,44.21-96.31,96.39-94.67
				C211.03-472.24,259.36-426.32,258.58-372.93z"/>
			<path class="st1" d="M143.6,0c-11.63-2.44-23.33-4.49-34.96-6.91c-10.02-2.08-18.63-6.9-27.62-11.13
				c-8.82-4.15-15.38-10.81-21.95-17.9c-10.4-11.22-11.91-31.48-3.22-43.96c9.09-13.07,21.8-20.85,35.64-27.48
				c4.71-2.25,8-2.02,9.48,3.84c0.9,3.58,3.85,7.28,3.24,10.42c-0.62,3.21-5.95,2.87-8.84,4.81c-7.75,5.22-16.69,8.85-22.19,17.07
				c-4.66,6.95-7.37,13.45,0.71,23.32c11.16,13.63,26.69,19.78,42.6,23.76c22.88,5.72,46.34,6.39,69.98,3.54
				c10.94-1.32,21.7-2.62,31.93-6.71c13.09-5.24,25.98-10.87,34.56-22.98c3.53-4.99,4.58-9.93,1.87-15.88
				c-3.8-8.36-10.87-13.05-18.06-17.7c-3.61-2.34-7.32-4.89-11.36-6.11c-5.43-1.64-5.53-4.28-3.11-8.35
				c0.1-0.16,0.12-0.37,0.19-0.56c4.19-11.54,4.93-12.1,15.8-6.13c11.29,6.21,22.56,12.75,29.78,24.05
				c5.17,8.09,7.71,17.12,5.85,26.58c-3.09,15.72-12.75,26.61-26.83,33.84c-4.52,2.32-8.54,5.47-13.26,7.56
				c-15.56,6.87-32.12,9.41-48.73,11.83C183.78-1,182.32-1.26,181.32,0C168.75,0,156.18,0,143.6,0z"/>
		</g>
	</g>
</pattern>
<g>
	<polygon class="st1" points="148.61,47.62 148.61,166.67 97.72,217.58 97.72,98.5 50.32,98.5 50.32,47.62 	"/>
	<polyline class="st1" points="161.45,102.94 161.45,47.62 224.33,47.62 	"/>
</g>
<g>
	<path class="st2" d="M-250.13-325.1c-3.06,6.39-4.35,13.38-5.77,20.15c-2.4,11.41-7.05,21.87-11.45,32.48
		c-5.51,13.32-11.53,26.38-17.84,39.37c-8.52,17.52-17.67,34.65-27.07,51.68c-9.61,17.4-19.78,34.46-30.31,51.33
		c-5.57,8.92-11.57,17.61-16.77,26.67c-7.01,12.21-15.18,23.6-22.61,35.49c-8.05,12.87-17.01,25.15-25.44,37.78
		c-2.13,3.19-3.37,4.08-5.93,0.18c-8.41-12.8-17.3-25.28-25.75-38.06c-12.25-18.55-24.86-36.9-36.18-56.01
		c-6.62-11.18-13.39-22.32-19.97-33.53c-7.9-13.47-15.57-27.09-23.13-40.73c-11.94-21.51-23.18-43.51-32.4-66.32
		c-5.76-14.25-12.46-28.3-15.95-43.36c-5.21-22.49-6.2-45.01-1.47-67.99c2.89-14.04,8.13-26.79,14.26-39.46
		c7.09-14.66,16.64-27.32,27.95-39.06c9.56-9.92,19.95-18.62,31.64-25.53c10.86-6.42,21.98-12.81,34.32-16.06
		c10.9-2.87,22.03-4.83,33.06-7.2c11.4,0,22.79,0,34.19,0c1.07,0.41,2.1,0.99,3.21,1.19c11.31,2.01,22.81,3.82,33.47,7.92
		c15.82,6.08,30.82,13.75,44.33,24.59c8.23,6.6,16.13,13.63,22.87,21.34c6.77,7.74,13.77,15.79,18.18,25.56
		c4.96,10.98,11.43,21.13,14.18,33.25c1.83,8.08,2.99,16.48,6.4,24.2C-250.13-351.85-250.13-338.48-250.13-325.1z M-410.84-438.37
		c-52.18-1.64-96.14,44.9-96.39,94.67c-0.27,53.12,42.37,97.85,97.05,97.73c51.38-0.11,95.06-42.86,95.83-95.7
		C-313.56-395.07-361.89-440.98-410.84-438.37z"/>
	<path class="st2" d="M-429.32,31.26c-11.63-2.44-23.33-4.49-34.96-6.91c-10.02-2.08-18.63-6.9-27.62-11.13
		c-8.82-4.15-15.38-10.81-21.95-17.9c-10.4-11.22-11.91-31.48-3.22-43.96c9.09-13.07,21.8-20.85,35.64-27.48
		c4.71-2.25,8-2.02,9.48,3.84c0.9,3.58,3.85,7.28,3.24,10.42c-0.62,3.21-5.95,2.87-8.84,4.81c-7.75,5.22-16.69,8.85-22.19,17.07
		c-4.66,6.95-7.37,13.45,0.71,23.32c11.16,13.63,26.69,19.78,42.6,23.76c22.88,5.72,46.34,6.39,69.98,3.54
		c10.94-1.32,21.7-2.62,31.93-6.71c13.09-5.24,25.98-10.87,34.56-22.98c3.53-4.99,4.58-9.93,1.87-15.88
		c-3.8-8.36-10.87-13.05-18.06-17.7c-3.61-2.34-7.32-4.89-11.36-6.11c-5.43-1.64-5.53-4.28-3.11-8.35c0.1-0.16,0.12-0.37,0.19-0.56
		c4.19-11.54,4.93-12.1,15.8-6.13c11.29,6.21,22.56,12.75,29.78,24.05c5.17,8.09,7.71,17.12,5.85,26.58
		c-3.09,15.72-12.75,26.61-26.83,33.84c-4.52,2.32-8.54,5.47-13.26,7.56c-15.56,6.87-32.12,9.41-48.73,11.83
		c-1.33,0.19-2.79-0.06-3.78,1.19C-404.17,31.26-416.74,31.26-429.32,31.26z"/>
</g>
<g>
	<path class="st1" d="M84.93-501.21c2.37-10.64,4.46-21.36,7.21-31.91c1.42-5.45,3.33-10.98,6.14-15.81
		c6.74-11.59,12.44-23.68,21.02-34.4c6.01-7.52,12.66-14.36,19.49-20.73c9.27-8.66,19.53-16.56,31.47-21.79
		c7.69-3.36,14.82-7.94,22.95-10.42c19.94-6.08,40.21-9.52,61.14-8.5c12.55,0.61,24.73,3.57,36.96,5.93
		c7.17,1.39,14.19,4.59,20.7,8.05c11.26,5.99,22.51,11.82,32.73,19.97c8.57,6.84,16.53,14.16,23.61,22.21
		c15.47,17.61,26.99,38.02,32.82,60.62c6.18,23.95,8.2,48.42,1.94,73.2c-3.08,12.21-7.31,23.84-11.64,35.55
		c-5.23,14.15-11.76,27.7-17.84,41.47c-4.52,10.23-10.5,19.59-15.13,29.65c-10.38,22.55-23.35,43.66-35.79,65.03
		c-7.23,12.42-14.79,24.74-22.49,36.93c-7.37,11.68-14.75,23.42-22.03,35.19c-10.05,16.24-21.07,31.88-31.96,48.19
		c-5.58-5.04-7.74-11.87-11.94-17.29c-8.12-10.46-14.95-21.93-22.01-33.11c-12.35-19.58-24.81-39.12-36.67-59.03
		c-7.27-12.19-14.52-24.47-21.47-36.8c-6.35-11.26-13.54-22.2-18.4-34.37c-2.67-6.68-7.28-12.57-10.18-19.18
		c-6.17-14.05-14.17-27.24-18.98-41.94c-2.6-7.96-6.65-15.43-9.76-23.24c-5.3-13.29-7.63-27.39-10.88-41.24
		c-0.22-0.93-0.67-1.81-1.02-2.71C84.93-481.54,84.93-491.38,84.93-501.21z M245.75-186.61c6.46-4.93,8.35-12.75,12.93-18.7
		c9.08-11.82,16.13-24.95,24.5-37.23c7.41-10.88,13.1-22.93,20.43-33.87c8.19-12.21,15.52-24.98,22.28-37.89
		c6.03-11.52,12.85-22.64,18.8-34.22c8.29-16.13,16.73-32.25,24.05-48.78c7.53-17.01,14.07-34.49,19.75-52.4
		c9.4-29.64,5.88-58.02-3.31-86.19c-4.5-13.81-12.32-26.42-21.34-38.13c-10.56-13.71-22.88-25.85-37.47-34.57
		c-11.97-7.15-24.53-13.58-38.64-17.43c-39.14-10.66-76.05-7.08-111.85,11.7c-20.05,10.52-36.56,25.02-49.8,43.2
		c-10.14,13.93-17.73,29.13-22.4,45.93c-5.22,18.77-8.48,37.61-4.59,56.88c3.31,16.41,7.58,32.64,14.36,48.06
		c2.52,5.72,5.86,11.19,7.59,17.14c4.12,14.17,12.76,26.14,18.34,39.6c2.83,6.83,7.99,12.73,10.54,19.63
		c4.64,12.52,12.61,23.19,18.82,34.76c7.13,13.29,15.18,26.28,23.16,39.2c6.83,11.06,13.5,22.32,20.47,33.25
		c8.24,12.93,16.22,26.12,25.28,38.58C240.45-194.3,242.18-189.72,245.75-186.61z"/>
	<path class="st1" d="M243.86-125.91c18.37,0.16,33.86-2.82,49.42-6.08c13.53-2.83,25.3-8.79,36.35-16.62
		c5.89-4.18,10.26-9.68,12.64-16.56c2.64-7.65-2.96-20.06-10.95-25.44c-7.77-5.23-15.43-10.62-24.19-14.06
		c-2.02-0.8-2.24-1.78-1.56-3.52c0.86-2.19,1.66-4.4,2.46-6.62c0.83-2.28,2.35-2.32,4.2-1.35c7.4,3.87,14.9,7.56,22.15,11.67
		c7.16,4.05,11.93,10.79,16.16,17.42c8.52,13.33,5.29,27.96-4.56,39.87c-12.77,15.43-29.96,23.02-47.92,27.46
		c-25.24,6.24-51.23,9.09-77.44,4.78c-16.78-2.76-33.51-5.08-48.99-13.01c-14.55-7.46-28.06-16.01-33.44-32.34
		c-3.65-11.09-1.4-21.46,6.18-31.27c9.3-12.05,22-18.17,35.11-24.23c2.69-1.24,3.81-1.22,4.52,1.77c0.45,1.89,1.32,3.68,2.09,5.48
		c0.98,2.31,0.22,3.43-2.11,4.32c-8.98,3.44-16.9,8.87-24.48,14.56c-14.62,10.96-11.95,32.39,3.85,41.74
		c8.9,5.27,17.39,11.03,27.36,14.12c0.92,0.29,1.86,0.55,2.8,0.75C210.9-129.3,228.26-125.21,243.86-125.91z"/>
	<path class="st1" d="M246.2-571.24c50.32,0.02,88.46,40.44,87.27,89.6c-1.21,49.89-40.86,86.18-88.04,85.8
		c-49.84-0.4-88.78-40.08-87.11-91.27C159.83-533.4,197.19-571.61,246.2-571.24z M320.88-482.95
		c-0.28-43.27-32.36-75.23-74.03-75.65c-42.96-0.43-74.58,31.49-75.78,73.08c-1.26,43.66,33.71,76.89,74.32,77.23
		C285.89-407.97,320.22-440.45,320.88-482.95z"/>
</g>
<g>
	<g>
		<path class="st1" d="M418.91-379.45c-0.79-19.6,5.83-39.83,17.97-58.1c6.56-9.87,15.29-18.01,24.36-25.88
			c8.31-7.22,17.24-13.32,26.78-18.33c19.76-10.38,40.92-15.76,63.38-12.93c13.14,1.65,23.54,9.24,30.21,20.18
			c4.49,7.37,6.23,16.47,8.97,24.86c5.7,17.47,11.28,34.99,16.86,52.5c4.11,12.88,8.91,25.43,7.88,39.59
			c-0.67,9.13-3.92,16.97-8.07,24.45c-6.27,11.3-14.69,21.04-24.84,29.24c-5.13,4.14-5.32,8.9-2.27,14.69
			c7.28,13.82,15.8,26.88,24.33,39.91c8.24,12.58,17.22,24.67,25.98,36.9c7.5,10.47,14.73,21.16,22.84,31.14
			c7.79,9.59,16.45,18.48,24.92,27.51c7.86,8.37,15.82,16.65,23.99,24.71c8.87,8.74,17.62,17.62,26.68,26.19
			c8.83,8.35,17.6,16.72,27.07,24.34c4.17,3.35,8.19,3.05,12.64,0.14c7.24-4.73,12.92-11.44,20.94-15.29
			c10.71-5.14,21.65-5.96,33.2-4.6c13.62,1.6,24.83,9.24,37.14,14.09c11.06,4.36,21.97,9.15,32.72,14.24
			c12.39,5.88,25.02,11.21,37.53,16.8c10.62,4.74,14.85,14.75,16.52,25.38c1.06,6.73,0.76,13.78-0.56,20.7
			c-3.66,19.26-10.02,37.53-20.86,53.86c-5.77,8.7-13.24,16.25-21.25,23.09c-10.82,9.25-22.7,17.05-36.16,21.58
			c-19.82,6.67-39.91,8-60.71,2.87c-16.44-4.05-31.86-10.3-46.56-18.08c-10.6-5.61-20.7-12.39-30.6-19.41
			c-8.69-6.15-17.16-12.61-25.5-19.14c-11.26-8.82-21.77-18.64-32.23-28.42c-10.5-9.82-20.68-19.98-30.74-30.25
			c-14.82-15.13-29.41-30.48-43.25-46.54c-8.99-10.44-18.76-20.21-27.6-30.77c-9.3-11.1-17.99-22.72-26.78-34.23
			c-12.06-15.8-24.18-31.56-35.85-47.66c-8.04-11.09-15.44-22.65-22.94-34.12c-6.49-9.92-12.91-19.91-19.04-30.06
			c-7.37-12.21-14.27-24.67-20.46-37.55c-4.36-9.09-8.46-18.26-12.01-27.69C425.37-331.24,418.57-353.23,418.91-379.45z
			 M831.67,77.02c24.45,1.75,43.94-8.6,61.1-23.5c10.13-8.8,18.41-19.52,23.86-32.27c5.62-13.15,10.34-26.4,10.25-40.86
			c-0.04-7.07-0.08-14.18-8.77-17.44c-12.27-4.59-24.23-9.98-35.96-15.86c-4.67-2.34-9.58-4.19-14.36-6.3
			c-10.31-4.55-20.58-9.19-30.91-13.68c-10.41-4.53-20.54-8.9-32.7-5.52c-9.86,2.74-15.62,10.55-23.45,15.71
			c-8.99,5.93-17.73,8.97-28.47,4.74c-5.5-2.16-9.65-5.74-13.88-9.34c-13.22-11.23-25.52-23.43-37.9-35.58
			c-12.06-11.83-23.8-23.97-35.47-36.16c-12.11-12.65-23.67-25.8-34.35-39.8c-12.7-16.64-24.88-33.67-36.95-50.73
			c-11-15.54-20.63-32.11-30.05-48.69c-8.3-14.62-6.75-30.22,6.44-41.26c8.35-7,15.55-14.8,20.47-24.38
			c3.88-7.56,7.31-15.81,4.88-24.53c-4.22-15.16-9-30.18-13.78-45.18c-5.08-15.96-10.37-31.86-15.71-47.73
			c-2-5.94-6.27-10.13-12.16-11.88c-12.3-3.67-24.81-1.73-36.81,1.03c-18.5,4.24-33.77,15.18-47.65,27.56
			c-11.91,10.63-21.42,23.33-26.35,38.96c-5.87,18.59-5.28,37.64-1.44,56.12c4.56,21.9,13.17,42.67,23.52,62.63
			c6.3,12.16,13.02,24.05,19.89,35.9c8.83,15.22,18.78,29.71,28.54,44.29c9.4,14.04,20.42,27,29.98,40.95
			c10.86,15.86,23.14,30.62,34.8,45.83c10.91,14.24,23.27,27.43,35.57,40.61C627.28-64.97,640.21-50.1,654-36.08
			c16.92,17.19,34.23,33.96,52.68,49.59c9.79,8.29,19.57,16.66,29.9,24.14c15.76,11.41,32.13,22.04,50.45,29.29
			C801.63,72.71,816.15,78.37,831.67,77.02z"/>
	</g>
</g>
<g>
	<path class="st1" d="M1347.03-176.77v-138.07h-0.09c-0.12-13.31,0.79-26.63-0.61-39.92c-1.94-18.34-15.19-31.84-31.29-36.87
		c-8.27-2.57-16.82-1.51-25.24-1.52c-123.88-0.07-247.76-0.03-371.64-0.12c-9.55,0-18.36,1.79-26.3,7.31
		c-12.2,8.49-19.88,19.82-19.93,34.91c-0.21,69.15,0,138.31-0.18,207.46c-0.03,11.41,3.01,21.35,10.39,30.02
		c8.13,9.55,18.22,15.71,30.89,15.76c65.33,0.19,130.68,0.09,196.02,0.09v0.07c64.5,0,128.99-0.03,193.49,0.01
		c12.72,0,23.4-4.38,32.28-13.65c7.73-8.07,11.66-17.78,12.1-28.65C1347.41-152.21,1347.11-164.5,1347.03-176.77z M913.05-378.56
		c52.72-0.66,105.42-0.22,158.13-0.28c75.9-0.1,151.82-0.03,227.73,0c4.93,0.01,9.91-0.1,14.97,2.29
		c-4.65,3.63-9.03,7.31-13.66,10.64c-9.21,6.64-18.61,13.02-27.85,19.62c-11.51,8.19-22.95,16.49-34.39,24.77
		c-11.63,8.42-23.16,16.98-34.85,25.31c-13.08,9.31-26.21,18.57-39.22,27.99c-9.66,7-19.29,14.08-28.94,21.11
		c-16.13,11.74-38.65,10.27-54.29-2.32c-6.94-5.61-14.61-10.27-21.77-15.59c-15.7-11.66-31.62-22.96-47.53-34.31
		c-15.89-11.35-31.82-22.67-47.5-34.31c-11.83-8.76-23.94-17.12-35.76-25.86c-7.62-5.65-15.16-11.48-23.71-16.95
		C907.62-377.83,910.22-378.51,913.05-378.56z M896.96-126.63c-4.83,3.98-4.89,4.02-7.51-1.47c-1.93-4.04-3.11-8.22-3.09-12.84
		c0.1-34.86,0.06-69.74,0.06-104.61c-0.01-34.98,0.01-69.98-0.03-104.97c0-5.26,1.72-9.9,4.26-14.37c1.3-2.26,2.56-2.39,4.6-0.87
		c9.09,6.77,18.12,13.62,27.42,20.08c16.94,11.78,33.37,24.26,50.14,36.27c11.48,8.22,23.05,16.31,34.54,24.53
		c16.39,11.74,32.76,23.49,49.1,35.3c5.76,4.17,5.7,4.25-0.13,8.39c-12.11,8.6-24.44,16.89-36.24,25.89
		c-9.02,6.88-18.42,13.23-27.46,20.06c-14.83,11.23-30.28,21.63-45.41,32.46c-16,11.44-31.93,22.96-47.9,34.45
		C898.53-127.75,897.69-127.24,896.96-126.63z M1301.75-111.96c-121.8-0.01-243.62-0.04-365.42-0.12
		c-8.25-0.01-16.52,0.42-24.77-0.21c-2.41-0.18-4.53-1-7.24-1.97c9.48-6.76,18.49-13.17,27.49-19.62
		c11.8-8.45,23.58-16.91,35.33-25.39c16.06-11.59,32.08-23.22,48.13-34.82c16.54-11.95,33.07-23.89,49.62-35.84
		c2.33-1.69,4.77-3.26,7-5.1c1.87-1.53,3.36-1.15,5.13,0.13c9.76,7.1,20.78,10.26,32.76,10.23c11.39-0.01,22.01-2.92,31.28-9.58
		c3.18-2.29,5.16-1.57,7.8,0.42c10.53,7.88,21.1,15.71,31.77,23.43c14.19,10.24,28.48,20.32,42.7,30.53
		c15.71,11.27,31.4,22.59,47.08,33.89c14.29,10.3,28.59,20.63,42.85,30.96c0.16,0.1,0.18,0.42,0.3,0.76
		C1309.85-112.18,1305.79-111.96,1301.75-111.96z M1327.58-125.16c-1.09,1.72-1.93,2.02-3.3,0.67c-3.92-3.83-8.67-6.5-13.07-9.66
		c-15.79-11.32-31.55-22.67-47.32-33.98c-16.18-11.62-32.23-23.41-48.51-34.88c-17.43-12.26-34.49-25.04-51.76-37.51
		c-6.65-4.81-6.79-4.8-0.02-9.69c18.19-13.14,36.49-26.15,54.67-39.31c14.5-10.48,28.69-21.38,43.37-31.56
		c12.63-8.76,24.85-18.06,37.47-26.82c8.43-5.86,16.61-12.08,24.98-18.03c0.73-0.52,1.7-2.62,3.09-0.42
		c2.77,4.41,5.29,8.87,5.29,14.31c0,9.24,0.09,18.48,0.16,27.7c0.03,3.17-0.06,6.34,0.04,9.49v135.36c-0.04,0.4-0.06,0.81-0.06,1.23
		c-0.01,11.54-0.15,23.1,0.09,34.64C1332.86-136.85,1331.14-130.84,1327.58-125.16z"/>
</g>
<g>
	<path class="st3" d="M1909.21-298.85c-0.83-1.37-1.67-2.75-2.5-4.12c4.82-1.91,2.72-4.94,1.27-7.86c-0.58-1.17-1.07-2.41-1.81-3.47
		c-1.11-1.62-2.41-3.12-3.62-4.67c-0.61,0-1.21,0-1.82-0.01c-0.39-2.67-0.78-5.34-1.16-8c-0.28-1-0.57-1.99-0.85-2.99
		c-2.44-3.7-1.16-7.78-1.16-11.72c-0.02-71.7-0.07-143.4,0.04-215.1c0.02-12.39,0.75-24.79,1.16-37.18c4.6-2.41,4.64-2.75,0.7-6.03
		c0.43-2.32,0.85-4.64,1.28-6.97c1.89-1.16,4.1-2.03,5.58-3.58c1.1-1.16,1.23-3.22,1.88-4.85c1.13-2.86,3.37-5.9-1.49-7.57
		c1.22-2.1,2.45-4.19,3.67-6.29c3.54,3.08,4.56-0.77,5.87-2.47c1.26-1.64,2.94-4.18-0.91-5.32c0.44-0.63,0.87-1.27,1.31-1.9
		c2.14-0.78,4.35-1.42,6.33-2.49c0.24-0.13-0.75-2.54-1.17-3.9c2.8-2.79,5.59-5.58,8.39-8.37c1.63,0.2,3.25,0.41,4.88,0.61
		c-0.09-1.42-0.19-2.84-0.28-4.26c0.59-0.5,1.18-0.99,1.77-1.49c1.55,0.47,3.99,1.76,4.48,1.24c1.28-1.38,1.72-3.55,2.49-5.4
		c1.93-1.03,3.87-2.06,5.8-3.08c4.84,3.05,10.51,0.65,11.21-4.74c2.98-0.77,5.97-1.55,8.95-2.32c0.84,0.94,1.69,1.88,2.53,2.82
		c1.17-1.49,2.35-2.97,3.52-4.46c6.32-0.44,12.64-0.88,18.96-1.32c0.52,4.1,3.72,3.09,6.2,3.09c58.64,0.04,117.28,0.03,175.93,0.03
		c15.49,0,30.99,0.09,46.48-0.12c1.82-0.03,3.62-1.76,5.43-2.71c6.34,0.58,12.69,1.17,19.03,1.75c1.23,1.26,2.46,2.51,3.69,3.77
		c0.76-0.84,1.52-1.68,2.28-2.53c3,0.66,6,1.33,9,1.99c0.7,5.39,6.36,7.79,11.21,4.75c1.93,1.03,3.86,2.05,5.79,3.08
		c0.46,5.81,1.79,6.74,7.08,4.98c0.55,0.22,1.1,0.44,1.65,0.66c-0.09,1.42-0.19,2.84-0.28,4.26c1.62-0.2,3.25-0.41,4.87-0.61
		c2.8,2.79,5.6,5.57,8.39,8.36c-0.42,1.36-1.41,3.77-1.16,3.9c1.98,1.08,4.19,1.72,6.33,2.5c0.44,0.63,0.87,1.27,1.31,1.9
		c-0.63,1.18-2.06,2.63-1.76,3.48c1.09,3.09,2.79,5.94,6.89,5.47c0.28,0.38,0.56,0.75,0.83,1.13c0.28,0.33,0.56,0.65,0.83,0.98
		c0.28,1.26,0.56,2.53,0.85,3.79c-3.59,2.31-1.43,4.77-0.17,7.19c0.55,1.06,1.79,2.17,1.65,3.1c-0.55,3.69,1.41,4.72,4.48,4.93
		c0.42,2.66,0.84,5.32,1.26,7.98c-0.65,0.9-1.3,1.8-1.95,2.7c1.24,0.77,2.47,1.54,3.71,2.32c0.39,13.58,1.09,27.16,1.11,40.74
		c0.12,66.44,0.05,132.88,0.05,199.32c0,6.67,0.93,13.53-0.29,19.98c-1.73,9.13-5.07,17.95-7.72,26.91
		c-0.24,0.35-0.49,0.69-0.73,1.04c-1.08,2.34-2.16,4.68-3.23,7.02c-0.83,0.02-2.03-0.29-2.41,0.13c-1.92,2.12-3.79,4.33-5.27,6.76
		c-0.3,0.5,1.14,2.07,1.79,3.14c-2.57,7.18-8.97,11-14.01,16.01c-5.27-1.82-6.77-0.75-7.05,5.05c0,0,0.03-0.03,0.03-0.03
		c-1.91,0.13-3.83,0.26-5.74,0.39c0.18,1.31,0.36,2.61,0.54,3.92c-4.03,3.46-8.51,5.97-13.84,6.75c-0.84-4.96-4.03-2.66-6.3-1.75
		c-1.44,0.58-4.28,1.91-0.86,4.01c-2.29,0.82-4.58,1.63-6.88,2.45c-0.77-1.17-1.54-2.34-2.3-3.51c-1.22,1.6-2.44,3.2-3.65,4.8
		c-7.01,0.57-14.03,1.14-21.04,1.71c0.01-3.98-3.03-2.78-5.07-2.79c-26.98-0.06-53.96-0.04-80.94-0.04
		c-0.33-4.95-0.95-9.9-0.96-14.85c-0.08-40.62-0.02-81.25-0.12-121.87c-0.01-2.09-1.18-4.17-1.81-6.26c0-0.34,0-0.68-0.01-1.03
		c0.12-0.08,0.34-0.17,0.34-0.24c-0.02-0.24-0.12-0.48-0.19-0.71c1.55-0.26,3.1-0.75,4.65-0.75c15.96-0.06,31.92,0,47.88-0.09
		c1.65-0.01,3.29-0.77,4.94-1.18c0.14-0.33,0.29-0.65,0.43-0.98c0.56-0.58,1.13-1.16,1.69-1.74c-0.56-0.41-1.12-0.83-1.68-1.24
		c-0.03-0.35-0.06-0.69-0.09-1.04c0.36-0.67,0.73-1.34,1.09-2.01c0.48-0.33,0.95-0.67,1.43-1c-0.48-0.33-0.95-0.67-1.43-1
		c0.33-1.02,0.66-2.04,0.99-3.05c0.56-0.41,1.12-0.82,1.69-1.22c-0.56-0.57-1.12-1.15-1.68-1.72c0.21-0.67,0.42-1.33,0.63-2
		c0.12-0.33,0.25-0.67,0.37-1c0.48-0.33,0.95-0.67,1.43-1c-0.48-0.33-0.95-0.67-1.43-1c0.33-1,0.67-2,1-3
		c0.56-0.42,1.12-0.85,1.68-1.27c-0.56-0.58-1.12-1.15-1.68-1.73c0.33-1,0.67-2,1-3c0.33-1.32,0.67-2.65,1-3.97
		c0-0.34,0-0.68,0-1.03c0.2-1.03,0.4-2.07,0.6-3.1c0.01-0.63,0.03-1.27,0.04-1.9c0.12-0.33,0.24-0.67,0.35-1
		c0.19-0.71,0.38-1.41,0.57-2.12c0.14-0.96,0.28-1.92,0.43-2.88c0.2-1.03,0.41-2.07,0.61-3.1c0.13-0.97,0.27-1.93,0.4-2.9
		c0.19-0.71,0.37-1.41,0.56-2.12c0.15-0.96,0.29-1.92,0.44-2.88c0.21-1.03,0.41-2.06,0.62-3.09c0.13-0.97,0.26-1.94,0.39-2.91
		c0.47-0.29,0.95-0.58,1.42-0.88c-0.55-0.37-1.1-0.73-1.65-1.1c-0.33-0.06-0.63-0.01-0.92,0.15c-2.48-0.06-4.96-0.16-7.44-0.17
		c-19.86-0.08-39.73-0.14-59.59-0.2c-0.29-0.26-0.58-0.53-0.87-0.79c-0.01-1.34-0.02-2.68-0.03-4.01c0.64-1.28,1.78-2.55,1.83-3.86
		c0.21-5.37,0.09-10.76,0.09-16.14c-0.63-0.67-1.26-1.33-1.89-2c0.02-0.67,0.04-1.33,0.06-2c0.93-0.84,2.44-1.53,2.69-2.54
		c0.65-2.59,0.56-5.36,1.09-8c2.72-13.36,9.51-23.13,23.57-26.51c0.99-0.24,1.65-1.85,2.47-2.83c0.68,0.01,1.37,0.02,2.05,0.03
		c3.04,3.35,5.11,1.79,6.88-1.35c1.02-0.28,2.04-0.55,3.07-0.83c0.33,0.14,0.66,0.28,1,0.43c0.5,0.93,1,2.67,1.5,2.67
		c4.59,0.02,9.18-0.22,13.76-0.55c0.3-0.02,0.5-1.39,0.74-2.13c0.33-0.14,0.66-0.29,0.99-0.43c2.67,0.4,5.33,0.8,8,1.2
		c0.57,0.56,1.15,1.12,1.72,1.69c0.43-0.56,0.85-1.11,1.28-1.67c0.64-0.3,1.27-0.6,1.91-0.89c4.98,0.91,3.94-3.21,3.97-5.42
		c0.21-15.81,0.1-31.63,0.12-47.45c0-4.64-2.73-7.92-6.62-8.92c-6.72-1.74-13.7-2.97-20.63-3.33c-10.31-0.54-20.67-0.28-31.01-0.11
		c-7.29,0.12-14.67,0.06-21.84,1.17c-6.88,1.07-13.58,3.43-20.27,5.52c-1.71,0.54-3.07,2.22-4.59,3.38
		c-0.66,0.33-1.33,0.66-1.99,0.99c-3.82-1.17-11.41,2.97-12.94,7.06l0.05-0.06c-1.36,1.04-2.71,2.08-4.07,3.12
		c-0.36,0.58-0.73,1.17-1.09,1.75c-2.64,2.68-5.27,5.36-7.91,8.04c-0.28,0.03-0.55,0.06-0.83,0.07c-3.92-0.33-4.18,2.3-4.16,5.15
		c0.06,0.29-0.01,0.54-0.2,0.77c-0.26,0.39-0.52,0.79-0.78,1.18c0,0,0.09-0.07,0.08-0.07c-1.47,1.12-3.44,1.93-4.34,3.4
		c-6.39,10.44-9.1,22.19-11.48,34.01c-0.14,0.68,0.95,1.6,1.47,2.41c0.05,1.02,0.11,2.04,0.17,3.06c-0.28,0.01-0.56,0.03-0.84,0.06
		c-0.67,0.51-1.33,1.01-1.99,1.52c0.56,0.45,1.11,0.91,1.67,1.36c0.06,2.02,0.11,4.04,0.17,6.06c-0.38,0.33-0.76,0.66-1.15,1
		c-2.66,1.32-2.67,2.65-0.02,4c0.11,0.33,0.22,0.67,0.33,1c-0.14,0.27-0.18,0.56-0.12,0.86c0.04,0.58,0.08,1.16,0.12,1.74
		c-0.04,2.46-0.08,4.93-0.12,7.39c-0.68,1.44-1.9,2.86-1.96,4.33c-0.24,5.47-0.35,10.97-0.02,16.43c0.28,4.69-1.2,6.51-6.14,6.35
		c-9.95-0.33-19.92-0.1-29.88-0.1c-2.01,0-4.22-0.31-4.06,2.81c-0.67,0.4-1.35,0.8-2.02,1.19c-0.66,1.3-1.89,2.59-1.89,3.89
		c-0.12,18.78-0.13,37.56,0.01,56.34c0.01,1.24,1.34,2.47,2.06,3.71c1.99,0.1,3.97,0.27,5.96,0.29c11.62,0.11,23.25,0.19,34.87,0.28
		c0.34,6.94,0.95,13.88,0.96,20.83c0.09,39.6,0.02,79.19,0.13,118.79c0.01,2,1.25,4,1.92,6.01c-0.32,0.62-0.63,1.23-0.95,1.85
		c-0.38,0.27-0.75,0.55-1.13,0.82c-1.66-1.27-3.3-3.62-4.97-3.64c-17.99-0.27-36-0.15-53.99-0.18c-2.69-0.01-4.09,1.07-3.96,3.85
		c-6.35-0.57-12.69-1.15-19.04-1.72c-1.22-1.6-2.44-3.2-3.65-4.8c-0.77,1.17-1.54,2.34-2.3,3.51c-1.68-0.57-3.36-1.14-5.04-1.72
		c0.41-3.89-2.33-5.16-5.27-5.58c-1.1-0.15-2.45,1.48-3.68,2.29c-4.46-0.97-9.62-0.45-12.04-5.72c-0.87-1.94-1.73-3.89-2.6-5.83
		c-1.14,0.61-2.27,1.22-3.41,1.83c-0.67-0.34-1.34-0.67-2.01-1.01c-0.08-1.61,0.33-4.32-0.34-4.62c-1.64-0.74-3.78-0.36-5.72-0.44
		c-4.26-4.15-8.59-8.24-12.73-12.5c-0.79-0.81-0.87-2.32-1.28-3.51c0.67-0.9,1.94-1.82,1.91-2.69
		C1917.22-295.21,1912.99-298.79,1909.21-298.85z"/>
	<path class="st4" d="M2204.7-449.98c-0.13,0.97-0.27,1.93-0.4,2.9c-0.2,1.03-0.41,2.07-0.61,3.1c-0.14,0.96-0.28,1.92-0.43,2.88
		c-0.3,0.37-0.6,0.75-0.9,1.12c-0.47,0.33-0.95,0.66-1.42,0.99c0.46,0.34,0.93,0.67,1.39,1.01c-0.01,0.63-0.03,1.27-0.04,1.9
		c-0.2,1.03-0.4,2.07-0.6,3.1c0,0.34,0,0.68,0,1.03c-0.33,1.32-0.67,2.65-1,3.97c-0.33,1-0.67,2-1,3c0,1,0,2,0,3c-0.33,1-0.67,2-1,3
		c-0.11,0.33-0.22,0.67-0.33,1c-0.47,0.33-0.95,0.65-1.42,0.98c0.46,0.34,0.92,0.68,1.38,1.02c-0.21,0.67-0.42,1.33-0.63,2
		c-0.11,0.33-0.22,0.67-0.33,1c-0.47,0.33-0.95,0.67-1.42,1c0.47,0.35,0.93,0.71,1.4,1.06l0.34-0.12c-0.33,1.02-0.66,2.04-0.99,3.05
		c-0.11,0.33-0.22,0.67-0.33,1c-0.25,1-0.51,2.01-0.76,3.01c0.03,0.35,0.06,0.69,0.09,1.04l-0.33-0.09
		c-1.5,1.31-3.15,2.62-0.11,4.05c-1.65,0.41-3.29,1.17-4.94,1.18c-15.96,0.09-31.92,0.03-47.88,0.09c-1.55,0.01-3.1,0.49-4.65,0.75
		c-0.05,0.32-0.1,0.64-0.15,0.95c0,0.34,0,0.68,0.01,1.03c-0.06,32.72-0.16,65.43-0.18,98.15c-0.01,14.94,0.12,29.89,0.18,44.83
		c-0.01,0.99-0.03,1.98-0.04,2.98c-26.02,0.01-52.04,0.02-78.05,0.03c-0.33-0.34-0.66-0.69-0.99-1.03c0,0,0.03,0.02,0.03,0.02
		c0.32-0.61,0.63-1.23,0.95-1.84c0.09-0.82,0.25-1.65,0.25-2.47c0.01-46.32,0.01-92.65,0.01-138.97c0-0.83,0.32-2.02-0.1-2.42
		c-0.84-0.81-2.09-1.2-3.18-1.76c-11.62-0.09-23.25-0.17-34.87-0.28c-1.99-0.02-3.97-0.19-5.96-0.29
		c-0.06-21.32-0.12-42.63-0.17-63.95c0.67-0.4,1.35-0.8,2.02-1.19c13.67,0.01,27.34,0.02,41.01,0.03c0.34,0.07,0.67,0.13,1.01,0.2
		c0.31,0.5,0.61,0.99,0.92,1.49c0.19-0.19,0.39-0.38,0.58-0.58c-0.49-0.31-0.99-0.62-1.48-0.93c-0.01-0.34-0.01-0.68-0.02-1.02
		c0.01-9.67,0.02-19.33,0.03-29c0.04-2.46,0.08-4.93,0.12-7.39c-0.04-0.58-0.08-1.16-0.12-1.74c-0.05-0.3-0.01-0.59,0.12-0.86
		c4.46-1.41,2.73-3.69,0.84-5.99c-0.06-2.02-0.11-4.04-0.17-6.06c0,0,0.33,0.11,0.33,0.11c0.28-1.02,0.56-2.04,0.84-3.05
		c-0.06-1.02-0.11-2.04-0.17-3.06l0.33,0.11c0.88-0.46,1.76-0.91,2.64-1.37c-0.6-0.56-1.2-1.12-1.79-1.68
		c0.07-0.67,0.15-1.34,0.22-2.01c0.24-1,0.48-2.01,0.72-3.01c0.07-1,0.15-2,0.23-3.01c0.27-0.33,0.54-0.65,0.81-0.98
		c1.54-4.43,3.09-8.86,4.64-13.29c0.13-0.55,0.26-1.1,0.39-1.65l0.05-0.03c5.31-1.26,6.87-4.22,4.38-8.32
		c0.58-1.53,1.16-3.06,1.73-4.58c0,0-0.09,0.07-0.09,0.06c0.26-0.39,0.52-0.79,0.78-1.18c0.2-0.22,0.26-0.48,0.2-0.77
		c1.39-1.72,2.78-3.43,4.16-5.15c0.28-0.01,0.55-0.04,0.83-0.07c6.44-0.2,7.8-1.58,7.91-8.04c0.36-0.58,0.73-1.17,1.09-1.75
		c1.36-1.04,2.71-2.08,4.07-3.12c0,0-0.05,0.06-0.05,0.06c0.96-0.4,1.92-0.79,2.89-1.19c2.64,1.94,3.98,1.28,4-2.01
		c2.02-1.29,4.04-2.57,6.06-3.86c0.66-0.33,1.33-0.66,1.99-0.99c1.32-0.29,2.64-0.58,3.96-0.87c0.63,0.52,1.26,1.04,1.88,1.56
		c0.37-0.78,0.75-1.57,1.12-2.35c1-0.32,1.99-0.65,2.99-0.97c2.26,2.86,3.24,1.24,4-1.14c1.33-0.38,2.67-0.75,4-1.13
		c2.04,3.29,3.09,1.46,4.05-0.79l0.36-0.18l0.39,0.09c1.17,2.07,2.25,2.36,3.2-0.16c4.67-0.66,9.33-1.31,14-1.97
		c0.61,0.91,1.23,1.82,1.84,2.72c1.05-0.92,2.11-1.84,3.16-2.75c6,0,12,0,18,0c0.74,0.84,1.48,1.67,2.22,2.51
		c0.59-0.83,1.19-1.65,1.78-2.48c3,0.32,6,0.64,9,0.97c0.92,2.43,1.92,2.48,3,0.1c6.33,0.99,12.67,1.98,19,2.96
		c0.95,0.92,1.9,1.84,2.85,2.76c0.02,18.76,0.04,37.51,0.06,56.27c-0.64,0.3-1.27,0.6-1.91,0.9c-1,0-2-0.01-3-0.01
		c-2.67-0.4-5.33-0.8-8-1.2c-0.61-1.01-1.14-2.83-1.84-2.89c-4.35-0.4-8.75-0.63-13.1-0.37c-1.08,0.06-2.04,2.14-3.06,3.29
		c-1.02,0.28-2.04,0.55-3.07,0.83c-1.31-0.03-2.62-0.05-3.94-0.08c-0.51-0.53-1.03-1.05-1.54-1.58c-0.5,0.89-1.01,1.78-1.51,2.68
		l0.11,0.33c-0.68-0.01-1.37-0.02-2.05-0.03c-0.32-0.04-0.65-0.08-0.97-0.12c-0.34,0.27-0.67,0.54-1.01,0.81c-1,0.08-2,0.16-3,0.24
		c-1,0.34-2,0.67-3.01,1.01c-0.34,0.25-0.68,0.51-1.02,0.76c-0.99-0.55-2.61-1.78-2.86-1.54c-0.95,0.89-1.46,2.26-2.14,3.45
		c-2.68,2.42-5.36,4.83-8.04,7.25c-3.22-0.24-3.02,1.97-2.93,4.1c-1.4,3.97-2.8,7.94-4.2,11.91c-0.27,1.34-0.54,2.69-0.81,4.03
		c-0.06,0.99-0.12,1.98-0.19,2.97c-0.56,0.43-1.11,0.85-1.67,1.28c0.56,0.57,1.12,1.15,1.68,1.72c0.11,0.67,0.22,1.33,0.34,2
		c-0.02,0.67-0.04,1.33-0.06,2c-0.01,1-0.02,1.99-0.03,2.99c0,6.34,0,12.67,0,19.01c0.01,1.34,0.02,2.68,0.03,4.01
		c0.29,0.26,0.58,0.53,0.87,0.79c19.86,0.06,39.73,0.12,59.59,0.2c2.48,0.01,4.96,0.11,7.44,0.17c0.27,0.27,0.55,0.54,0.82,0.81
		c0.11,0.34,0.22,0.67,0.33,1.01c-0.13,0.97-0.26,1.94-0.39,2.91c-0.21,1.03-0.41,2.06-0.62,3.09c-0.15,0.96-0.29,1.92-0.44,2.88
		C2205.07-451.39,2204.89-450.68,2204.7-449.98z"/>
	<path class="st3" d="M2228.54-675.81c-1.81,0.94-3.61,2.68-5.43,2.71c-15.49,0.22-30.99,0.12-46.48,0.12
		c-58.64,0-117.28,0.01-175.93-0.03c-2.47,0-5.67,1.01-6.2-3.09c1.71-0.29,3.41-0.83,5.12-0.83c74.41-0.04,148.82-0.04,223.24,0.01
		C2224.75-676.92,2226.65-676.19,2228.54-675.81z"/>
	<path class="st3" d="M2140.54-251.97c26.98,0,53.96-0.02,80.94,0.04c2.04,0,5.07-1.2,5.07,2.79c-28.67,0-57.33,0-86,0
		C2140.54-250.09,2140.54-251.03,2140.54-251.97z"/>
	<path class="st3" d="M1994.54-249.14c-0.14-2.78,1.26-3.85,3.96-3.85c18,0.04,36-0.08,53.99,0.18c1.67,0.02,3.32,2.37,4.97,3.64
		C2036.49-249.16,2015.52-249.15,1994.54-249.14z"/>
	<path class="st3" d="M1906.71-622.97c4.86,1.67,2.62,4.71,1.49,7.57c-0.64,1.63-0.77,3.69-1.88,4.85
		c-1.48,1.55-3.69,2.42-5.58,3.58C1902.73-612.31,1904.72-617.64,1906.71-622.97z"/>
	<path class="st3" d="M1902.55-318.97c1.22,1.55,2.51,3.05,3.62,4.67c0.73,1.07,1.22,2.3,1.81,3.47c1.46,2.92,3.56,5.95-1.27,7.86
		c-1.7-4.67-3.41-9.35-5.11-14.02C1901.91-317.66,1902.23-318.32,1902.55-318.97z"/>
	<path class="st3" d="M2321.35-606.97c-3.06-0.21-5.03-1.24-4.48-4.93c0.14-0.93-1.1-2.04-1.65-3.1c-1.26-2.42-3.42-4.88,0.17-7.19
		c0.47,0.75,0.94,1.49,1.4,2.24c0.24,0.34,0.49,0.69,0.73,1.03c1.33,3.34,2.66,6.67,4,10.01c0.01,0.3,0.01,0.61,0.01,0.91
		C2321.47-607.66,2321.41-607.32,2321.35-606.97z"/>
	<path class="st3" d="M1909.21-298.85c3.78,0.06,8.01,3.64,8.13,7.22c0.03,0.88-1.24,1.79-1.91,2.69
		C1913.35-292.24,1911.28-295.55,1909.21-298.85z"/>
	<path class="st3" d="M2307.66-288.94c-0.64-1.08-2.09-2.64-1.79-3.14c1.48-2.43,3.35-4.64,5.27-6.76c0.39-0.42,1.59-0.11,2.41-0.13
		c-0.01,0.33-0.01,0.67-0.02,1c-0.28,0.33-0.56,0.66-0.84,0.99C2311.02-294.3,2309.34-291.62,2307.66-288.94z"/>
	<path class="st3" d="M1915.34-637.04c3.85,1.14,2.18,3.68,0.91,5.32c-1.31,1.7-2.33,5.54-5.87,2.47
		C1912.03-631.86,1913.69-634.45,1915.34-637.04z"/>
	<path class="st3" d="M1960.54-670.82c-0.7,5.39-6.36,7.79-11.21,4.74C1953.07-667.66,1956.81-669.24,1960.54-670.82z"/>
	<path class="st3" d="M2273.75-666.07c-4.85,3.04-10.51,0.65-11.21-4.75C2266.28-669.24,2270.02-667.66,2273.75-666.07z"/>
	<path class="st3" d="M2312.88-628.1c-4.1,0.47-5.79-2.38-6.89-5.47c-0.3-0.85,1.13-2.3,1.76-3.48
		C2309.46-634.06,2311.17-631.08,2312.88-628.1z"/>
	<path class="st3" d="M1955.54-257.14c1.24-0.82,2.59-2.45,3.68-2.29c2.95,0.41,5.69,1.69,5.27,5.58
		C1961.52-254.95,1958.53-256.05,1955.54-257.14z"/>
	<path class="st3" d="M2260.42-254.59c-3.42-2.11-0.57-3.43,0.86-4.01c2.26-0.91,5.46-3.21,6.3,1.75
		C2265.19-256.1,2262.81-255.35,2260.42-254.59z"/>
	<path class="st3" d="M2286.6-267.88c0.28-5.79,1.78-6.87,7.05-5.05C2291.3-271.24,2288.95-269.56,2286.6-267.88z"/>
	<path class="st3" d="M2306.44-638.94c-2.14-0.78-4.35-1.42-6.33-2.5c-0.25-0.13,0.74-2.55,1.16-3.9
		C2302.99-643.21,2304.72-641.07,2306.44-638.94z"/>
	<path class="st3" d="M1921.81-645.33c0.42,1.35,1.41,3.76,1.17,3.9c-1.98,1.07-4.19,1.72-6.33,2.49
		C1918.37-641.07,1920.09-643.2,1921.81-645.33z"/>
	<path class="st3" d="M1929.43-272.93c1.94,0.07,4.08-0.3,5.72,0.44c0.67,0.3,0.26,3.01,0.34,4.62
		C1933.47-269.56,1931.45-271.24,1929.43-272.93z"/>
	<path class="st3" d="M2286.63-658.01c-5.3,1.76-6.62,0.83-7.08-4.98C2281.91-661.33,2284.27-659.67,2286.63-658.01z"/>
	<path class="st3" d="M1943.54-662.99c-0.77,1.85-1.21,4.02-2.49,5.4c-0.49,0.52-2.93-0.77-4.48-1.24
		C1938.89-660.22,1941.21-661.6,1943.54-662.99z"/>
	<path class="st3" d="M2281.43-263.61c-0.18-1.31-0.36-2.61-0.54-3.92c1.91-0.13,3.83-0.26,5.74-0.39
		C2284.9-266.48,2283.16-265.04,2281.43-263.61z"/>
	<path class="st3" d="M1934.8-657.34c0.09,1.42,0.19,2.84,0.28,4.26c-1.63-0.2-3.25-0.41-4.88-0.61
		C1931.73-654.91,1933.26-656.13,1934.8-657.34z"/>
	<path class="st3" d="M2292.88-653.7c-1.62,0.2-3.25,0.41-4.87,0.61c0.09-1.42,0.19-2.84,0.28-4.26
		C2289.82-656.13,2291.35-654.92,2292.88-653.7z"/>
	<path class="st3" d="M1937.5-266.86c1.14-0.61,2.27-1.22,3.41-1.83c0.87,1.94,1.73,3.89,2.6,5.83
		C1941.5-264.19,1939.5-265.53,1937.5-266.86z"/>
	<path class="st3" d="M1969.54-252.14c0.77-1.17,1.54-2.34,2.3-3.51c1.22,1.6,2.44,3.2,3.65,4.8
		C1973.51-251.29,1971.53-251.71,1969.54-252.14z"/>
	<path class="st3" d="M2247.58-250.86c1.22-1.6,2.44-3.2,3.65-4.8c0.77,1.17,1.54,2.34,2.3,3.51
		C2251.56-251.71,2249.57-251.29,2247.58-250.86z"/>
	<path class="st3" d="M1975.54-674.78c-1.17,1.49-2.35,2.97-3.52,4.46c-0.84-0.94-1.69-1.88-2.53-2.82
		C1971.51-673.69,1973.53-674.23,1975.54-674.78z"/>
	<path class="st3" d="M2253.54-672.81c-0.76,0.84-1.52,1.68-2.28,2.53c-1.23-1.26-2.46-2.51-3.69-3.77
		C2249.56-673.64,2251.55-673.22,2253.54-672.81z"/>
	<path class="st3" d="M1899.46-600.01c3.94,3.28,3.9,3.62-0.7,6.03C1898.99-595.99,1899.22-598,1899.46-600.01z"/>
	<path class="st3" d="M2324.38-593.97c-1.24-0.77-2.47-1.55-3.71-2.32c0.65-0.9,1.3-1.8,1.95-2.7
		C2323.2-597.32,2323.79-595.65,2324.38-593.97z"/>
	<path class="st5" d="M2140.54-251.97c0,0.94,0,1.88,0,2.83c-0.98,0.05-1.95,0.1-2.93,0.15c0.01-0.99,0.03-1.98,0.04-2.98
		C2138.62-251.97,2139.58-251.97,2140.54-251.97z"/>
	<path class="st6" d="M1898.72-329.98c0.28,1,0.57,1.99,0.85,2.99C1899.28-327.98,1899-328.98,1898.72-329.98z"/>
	<path class="st7" d="M1902.55-318.97c-0.32,0.66-0.63,1.32-0.95,1.98c-0.29-0.66-0.58-1.32-0.87-1.98
		C1901.34-318.98,1901.94-318.98,1902.55-318.97z"/>
	<path class="st8" d="M2312.7-296.98c0.28-0.33,0.56-0.66,0.84-0.99C2313.26-297.64,2312.98-297.31,2312.7-296.98z"/>
	<path class="st8" d="M2316.79-305.99c0.24-0.35,0.49-0.69,0.73-1.04C2317.28-306.68,2317.04-306.34,2316.79-305.99z"/>
	<path class="st6" d="M2321.53-608c0-0.3,0-0.61-0.01-0.91c0.26,0.15,0.53,0.29,0.79,0.44
		C2322.05-608.32,2321.79-608.16,2321.53-608z"/>
	<path class="st9" d="M2317.52-618.92c-0.24-0.34-0.49-0.69-0.73-1.03C2317.04-619.61,2317.28-619.27,2317.52-618.92z"/>
	<path class="st9" d="M2314.54-625.98c-0.28-0.33-0.56-0.65-0.83-0.98C2313.99-626.64,2314.27-626.31,2314.54-625.98z"/>
	<path class="st10" d="M2058.57-250c0.33,0.34,0.66,0.69,0.99,1.03C2059.23-249.31,2058.9-249.66,2058.57-250z"/>
	<path class="st10" d="M2149.54-596.77c-4.67,0.66-9.33,1.31-14,1.97c-1.07,0.05-2.13,0.11-3.2,0.16l-0.39-0.09
		c0,0-0.36,0.18-0.36,0.18c-1.35,0.26-2.7,0.53-4.05,0.79c-1.33,0.38-2.67,0.75-4,1.13c-1.33,0.38-2.67,0.76-4,1.14
		c-1,0.32-1.99,0.65-2.99,0.97c-1,0.26-2.01,0.53-3.01,0.79c-1.32,0.29-2.64,0.58-3.96,0.87c1.52-1.16,2.87-2.84,4.59-3.38
		c6.68-2.09,13.39-4.45,20.27-5.52c7.17-1.12,14.55-1.05,21.84-1.17c10.34-0.17,20.7-0.44,31.01,0.11
		c6.93,0.36,13.91,1.59,20.63,3.33c3.89,1.01,6.63,4.28,6.62,8.92c-0.01,15.82,0.09,31.63-0.12,47.45
		c-0.03,2.22,1.01,6.34-3.97,5.42c-0.02-18.76-0.04-37.52-0.06-56.27c-0.95-0.92-1.9-1.84-2.85-2.76c-6.33-0.99-12.67-1.98-19-2.96
		c-1-0.03-2-0.07-3-0.1c-3-0.32-6-0.64-9-0.97c-1.33-0.01-2.67-0.02-4-0.03c-6,0-12,0-18,0
		C2152.88-596.79,2151.21-596.78,2149.54-596.77z"/>
	<path class="st10" d="M2056.53-397.46c1.08,0.56,2.34,0.95,3.18,1.76c0.42,0.41,0.1,1.59,0.1,2.42c0,46.32,0,92.65-0.01,138.97
		c0,0.82-0.16,1.65-0.25,2.47c-0.67-2-1.91-4-1.92-6.01c-0.11-39.6-0.04-79.19-0.13-118.79
		C2057.48-383.57,2056.87-390.51,2056.53-397.46z"/>
	<path class="st3" d="M2140.54-251.97c-0.96,0-1.93,0-2.89,0c-0.06-14.94-0.19-29.89-0.18-44.83c0.02-32.72,0.12-65.43,0.18-98.15
		c0.63,2.09,1.8,4.17,1.81,6.26c0.11,40.62,0.05,81.25,0.12,121.87C2139.6-261.87,2140.21-256.92,2140.54-251.97z"/>
	<path class="st10" d="M2058.55-463.14c-13.67-0.01-27.34-0.02-41.01-0.03c-0.15-3.12,2.05-2.81,4.06-2.81
		c9.96,0,19.93-0.23,29.88,0.1c4.94,0.16,6.42-1.65,6.14-6.35c-0.33-5.46-0.22-10.96,0.02-16.43c0.06-1.47,1.28-2.89,1.96-4.33
		c-0.01,9.67-0.02,19.33-0.03,29C2059.23-463.7,2058.89-463.42,2058.55-463.14z"/>
	<path class="st10" d="M2138.37-503.97c1.4-3.97,2.8-7.94,4.2-11.91c0.98-1.37,1.95-2.73,2.93-4.1c2.68-2.42,5.36-4.83,8.04-7.25
		c1.67-0.64,3.34-1.27,5-1.91c0.34-0.25,0.68-0.51,1.02-0.76c1-0.34,2-0.67,3.01-1.01c1-0.08,2-0.16,3-0.24
		c0.34-0.27,0.67-0.54,1.01-0.81c0.32,0.04,0.65,0.08,0.97,0.12c-0.82,0.97-1.48,2.59-2.47,2.83
		c-14.06,3.38-20.85,13.15-23.57,26.51c-0.54,2.63-0.44,5.4-1.09,8c-0.25,1.01-1.76,1.7-2.69,2.54c-0.11-0.67-0.22-1.33-0.34-2
		c0-1-0.01-2-0.01-3c0.06-0.99,0.12-1.98,0.19-2.97C2137.83-501.29,2138.1-502.63,2138.37-503.97z"/>
	<path class="st10" d="M2015.52-461.97c0.06,21.32,0.12,42.63,0.17,63.95c-0.72-1.24-2.05-2.47-2.06-3.71
		c-0.13-18.78-0.13-37.56-0.01-56.34C2013.64-459.38,2014.86-460.68,2015.52-461.97z"/>
	<path class="st10" d="M2063.73-532c-0.07,1-0.15,2-0.23,3.01c-0.24,1-0.48,2.01-0.72,3.01c-0.07,0.67-0.15,1.34-0.22,2.01
		c-0.28,1.02-0.57,2.04-0.85,3.05c0,0-0.33-0.11-0.33-0.11c-0.52-0.81-1.61-1.73-1.47-2.41c2.38-11.82,5.1-23.57,11.48-34.01
		c0.9-1.47,2.87-2.28,4.34-3.4c-0.58,1.53-1.16,3.06-1.73,4.58c-1.46,2.77-2.92,5.55-4.38,8.32c0,0-0.05,0.03-0.05,0.03
		c-0.13,0.55-0.26,1.1-0.39,1.65c-1.54,4.43-3.09,8.86-4.63,13.29C2064.27-532.65,2064-532.32,2063.73-532z"/>
	<path class="st4" d="M2179.54-534c1.02-1.15,1.98-3.22,3.06-3.29c4.35-0.26,8.75-0.02,13.1,0.37c0.69,0.06,1.23,1.89,1.84,2.89
		c-0.33,0.14-0.66,0.29-0.99,0.43c-5.34,0-10.67,0.01-16.01,0.01C2180.21-533.71,2179.87-533.86,2179.54-534z"/>
	<path class="st10" d="M2180.54-533.57c5.34,0,10.67-0.01,16.01-0.01c-0.25,0.74-0.45,2.11-0.74,2.13
		c-4.58,0.33-9.17,0.57-13.76,0.55C2181.54-530.91,2181.04-532.64,2180.54-533.57z"/>
	<path class="st3" d="M2137.63-467.98c0-6.34,0-12.67,0-19.01c0.64-0.33,1.28-0.66,1.92-0.99c0,5.38,0.12,10.77-0.09,16.14
		C2139.4-470.53,2138.27-469.26,2137.63-467.98z"/>
	<path class="st4" d="M2089.54-575.99c-0.11,6.46-1.47,7.85-7.91,8.04C2084.27-570.63,2086.9-573.31,2089.54-575.99z"/>
	<path class="st10" d="M2097.54-581.99c-0.96,0.4-1.92,0.79-2.89,1.19c1.53-4.09,9.12-8.23,12.94-7.06
		c-2.02,1.29-4.04,2.57-6.06,3.86C2100.2-583.33,2098.87-582.66,2097.54-581.99z"/>
	<path class="st10" d="M2172.54-533.24c1.31,0.03,2.62,0.05,3.94,0.08c-1.77,3.14-3.84,4.69-6.88,1.35l-0.11-0.33
		C2170.5-532.51,2171.52-532.88,2172.54-533.24z"/>
	<path class="st4" d="M2060.55-508.97c1.89,2.3,3.63,4.58-0.84,5.99c-0.11-0.33-0.22-0.67-0.33-1c0.01-1.33,0.01-2.66,0.02-4
		C2059.79-508.31,2060.17-508.64,2060.55-508.97z"/>
	<path class="st10" d="M2080.8-567.88c-1.39,1.72-2.78,3.43-4.16,5.15C2076.62-565.58,2076.88-568.2,2080.8-567.88z"/>
	<path class="st10" d="M2094.7-580.86c-1.36,1.04-2.71,2.08-4.07,3.12C2091.98-578.78,2093.34-579.82,2094.7-580.86z"/>
	<path class="st10" d="M2059.41-507.97c-0.01,1.33-0.01,2.66-0.02,4C2056.74-505.32,2056.75-506.65,2059.41-507.97z"/>
	<path class="st3" d="M2200.7-427.98c0.33-1.32,0.67-2.65,1-3.97C2201.37-430.62,2201.03-429.3,2200.7-427.98z"/>
	<path class="st10" d="M2060.39-515.03c-0.56-0.45-1.11-0.91-1.67-1.36c0.67-0.51,1.33-1.01,1.99-1.52c0,1,0,1.99,0,2.99
		C2060.71-514.92,2060.39-515.03,2060.39-515.03z"/>
	<path class="st3" d="M2197.37-412.97c0.11-0.33,0.22-0.67,0.33-1c0.56,0.57,1.12,1.15,1.68,1.72c-0.56,0.41-1.12,0.82-1.69,1.22
		c0,0-0.34,0.12-0.34,0.12C2197.36-411.6,2197.36-412.29,2197.37-412.97z"/>
	<path class="st3" d="M2205.69-454.98c0.21-1.03,0.41-2.06,0.62-3.09C2206.11-457.04,2205.9-456.01,2205.69-454.98z"/>
	<path class="st3" d="M2203.69-443.98c0.2-1.03,0.41-2.07,0.61-3.1C2204.1-446.04,2203.9-445.01,2203.69-443.98z"/>
	<path class="st10" d="M2205.54-532.82c1,0,2,0.01,3,0.01c-0.43,0.56-0.85,1.11-1.28,1.67
		C2206.69-531.7,2206.12-532.26,2205.54-532.82z"/>
	<path class="st3" d="M2201.7-432.98c0.2-1.03,0.4-2.07,0.6-3.1C2202.1-435.04,2201.9-434.01,2201.7-432.98z"/>
	<path class="st3" d="M2199.7-421.98c0-1,0-2,0-3c0.56,0.58,1.12,1.15,1.68,1.73C2200.82-422.82,2200.26-422.4,2199.7-421.98z"/>
	<path class="st3" d="M2195.7-402.92c0.56,0.41,1.12,0.83,1.68,1.24c-0.56,0.58-1.13,1.16-1.69,1.74c-0.11-1.02-0.21-2.05-0.32-3.07
		L2195.7-402.92z"/>
	<path class="st4" d="M2195.37-403.01c0.11,1.02,0.21,2.05,0.32,3.07c-0.14,0.33-0.29,0.65-0.43,0.98
		C2192.22-400.4,2193.87-401.7,2195.37-403.01z"/>
	<path class="st4" d="M2060.71-514.92c0-1,0-1.99,0-2.99c0.28-0.03,0.56-0.05,0.84-0.06
		C2061.27-516.95,2060.99-515.93,2060.71-514.92z"/>
	<path class="st4" d="M2195.61-403.96c0.25-1,0.5-2.01,0.76-3.01c0.11,0.33,0.22,0.67,0.33,1
		C2196.34-405.3,2195.98-404.63,2195.61-403.96z"/>
	<path class="st3" d="M2139.54-487.97c-0.64,0.33-1.28,0.66-1.92,0.99c0.01-1,0.02-1.99,0.03-2.99
		C2138.28-489.31,2138.91-488.64,2139.54-487.97z"/>
	<path class="st3" d="M2196.7-405.98c-0.11-0.33-0.22-0.67-0.33-1c0.11-0.33,0.22-0.67,0.33-1c0.48,0.33,0.95,0.67,1.43,1
		C2197.65-406.64,2197.18-406.31,2196.7-405.98z"/>
	<path class="st4" d="M2198.33-415.98c-0.46-0.34-0.92-0.68-1.38-1.02c0.47-0.33,0.95-0.65,1.42-0.98c0.11,0.33,0.22,0.67,0.33,1
		C2198.58-416.64,2198.45-416.31,2198.33-415.98z"/>
	<path class="st3" d="M2198.7-416.98c-0.11-0.33-0.22-0.67-0.33-1c0.11-0.33,0.22-0.67,0.33-1c0.48,0.33,0.95,0.67,1.43,1
		C2199.65-417.64,2199.18-417.31,2198.7-416.98z"/>
	<path class="st4" d="M2202.34-437.98c-0.46-0.34-0.93-0.67-1.39-1.01c0.47-0.33,0.95-0.66,1.42-0.99c0.11,0.33,0.22,0.67,0.33,1
		C2202.58-438.64,2202.46-438.31,2202.34-437.98z"/>
	<path class="st3" d="M2202.7-438.98c-0.11-0.33-0.22-0.67-0.33-1c0.3-0.37,0.6-0.75,0.9-1.12
		C2203.08-440.39,2202.89-439.68,2202.7-438.98z"/>
	<path class="st3" d="M2204.7-449.98c0.19-0.71,0.37-1.41,0.56-2.12C2205.07-451.39,2204.89-450.68,2204.7-449.98z"/>
	<path class="st3" d="M2206.7-460.98c-0.11-0.34-0.22-0.67-0.33-1.01c0.16-0.31,0.19-0.63,0.1-0.97c0.55,0.37,1.1,0.73,1.65,1.1
		C2207.65-461.56,2207.17-461.27,2206.7-460.98z"/>
	<path class="st11" d="M2206.48-462.95c0.09,0.34,0.06,0.66-0.1,0.97c-0.27-0.27-0.55-0.54-0.82-0.81
		C2205.84-462.96,2206.15-463.01,2206.48-462.95z"/>
	<path class="st10" d="M2059.59-502.11c0.04,0.58,0.08,1.16,0.12,1.74C2059.67-500.95,2059.63-501.53,2059.59-502.11z"/>
	<path class="st3" d="M2137.65-395.99c0.05-0.32,0.1-0.64,0.15-0.95c0.07,0.24,0.17,0.47,0.19,0.71
		C2137.99-396.16,2137.76-396.07,2137.65-395.99z"/>
	<path class="st10" d="M2076.43-561.96c-0.26,0.39-0.52,0.79-0.78,1.18C2075.92-561.17,2076.18-561.57,2076.43-561.96z"/>
	<path class="st3" d="M2138.52-463.17c-0.29-0.26-0.58-0.53-0.87-0.79C2137.94-463.7,2138.23-463.43,2138.52-463.17z"/>
	<path class="st4" d="M2069.63-547.94c1.46-2.77,2.92-5.55,4.38-8.32C2076.49-552.16,2074.93-549.2,2069.63-547.94z"/>
	<path class="st4" d="M2149.54-596.77c1.67-0.01,3.33-0.02,5-0.03c-1.05,0.92-2.11,1.84-3.16,2.75
		C2150.77-594.95,2150.16-595.86,2149.54-596.77z"/>
	<path class="st4" d="M2158.54-529.14c-1.67,0.64-3.34,1.27-5,1.91c0.68-1.19,1.18-2.56,2.14-3.45
		C2155.93-530.92,2157.55-529.7,2158.54-529.14z"/>
	<path class="st4" d="M2097.54-581.99c1.33-0.67,2.67-1.34,4-2.01C2101.51-580.72,2100.18-580.05,2097.54-581.99z"/>
	<path class="st4" d="M2172.54-596.8c1.33,0.01,2.67,0.02,4,0.03c-0.59,0.83-1.19,1.65-1.78,2.48
		C2174.02-595.13,2173.28-595.96,2172.54-596.8z"/>
	<path class="st4" d="M2061.71-520.92c0.28-1.02,0.57-2.04,0.85-3.05c0.6,0.56,1.2,1.12,1.79,1.68
		C2063.48-521.83,2062.6-521.37,2061.71-520.92z"/>
	<path class="st4" d="M2119.54-591.5c1.33-0.38,2.67-0.76,4-1.14C2122.78-590.26,2121.8-588.64,2119.54-591.5z"/>
	<path class="st4" d="M2145.5-519.99c-0.98,1.37-1.95,2.73-2.93,4.1C2142.48-518.02,2142.28-520.22,2145.5-519.99z"/>
	<path class="st4" d="M2172.54-533.24c-1.02,0.37-2.04,0.73-3.06,1.1c0.5-0.89,1.01-1.78,1.51-2.68
		C2171.51-534.3,2172.03-533.77,2172.54-533.24z"/>
	<path class="st4" d="M2113.54-589.73c1-0.26,2.01-0.53,3.01-0.79c-0.37,0.78-0.75,1.57-1.12,2.35
		C2114.8-588.69,2114.17-589.21,2113.54-589.73z"/>
	<path class="st4" d="M2138.37-503.97c-0.27,1.34-0.54,2.69-0.81,4.03C2137.83-501.29,2138.1-502.63,2138.37-503.97z"/>
	<path class="st4" d="M2207.54-592.74c0.95,0.92,1.9,1.84,2.85,2.76C2209.44-590.9,2208.49-591.82,2207.54-592.74z"/>
	<path class="st4" d="M2127.54-593.77c1.35-0.26,2.7-0.53,4.05-0.79C2130.63-592.31,2129.59-590.48,2127.54-593.77z"/>
	<path class="st4" d="M2062.79-525.98c0.24-1,0.48-2.01,0.72-3.01C2063.27-527.98,2063.03-526.98,2062.79-525.98z"/>
	<path class="st4" d="M2137.37-496.97c0,1,0.01,2,0.01,3c-0.56-0.57-1.12-1.15-1.68-1.72
		C2136.26-496.12,2136.81-496.55,2137.37-496.97z"/>
	<path class="st4" d="M2132.35-594.64c1.07-0.05,2.13-0.11,3.2-0.16C2134.6-592.29,2133.52-592.57,2132.35-594.64z"/>
	<path class="st4" d="M2185.54-595.8c1,0.03,2,0.07,3,0.1C2187.46-593.32,2186.46-593.37,2185.54-595.8z"/>
	<path class="st4" d="M2162.57-530.91c-1,0.34-2,0.67-3.01,1.01C2160.56-530.24,2161.57-530.57,2162.57-530.91z"/>
	<path class="st4" d="M2197.37-412.97c-0.01,0.69-0.01,1.37-0.02,2.06c-0.47-0.35-0.93-0.71-1.4-1.06
		C2196.42-412.31,2196.9-412.64,2197.37-412.97z"/>
	<path class="st4" d="M2059.59-462.95c0.49,0.31,0.99,0.62,1.48,0.93c-0.2,0.19-0.39,0.38-0.58,0.58c-0.31-0.5-0.61-0.99-0.92-1.49
		L2059.59-462.95z"/>
	<path class="st4" d="M2166.57-531.97c-0.34,0.27-0.67,0.54-1.01,0.81C2165.9-531.42,2166.24-531.7,2166.57-531.97z"/>
	<path class="st4" d="M2063.73-532c0.27-0.33,0.54-0.65,0.81-0.98C2064.27-532.65,2064-532.32,2063.73-532z"/>
	<path class="st4" d="M2069.18-546.26c0.13-0.55,0.26-1.1,0.39-1.65C2069.44-547.36,2069.31-546.81,2069.18-546.26z"/>
	<path class="st12" d="M2058.55-463.14c0.34-0.28,0.68-0.56,1.02-0.84c0.01,0.34,0.01,0.68,0.02,1.02c0,0-0.03,0.01-0.03,0.01
		C2059.22-463,2058.88-463.07,2058.55-463.14z"/>
</g>
<g>
	<path class="st13" d="M2718.98-245.49h-271.89c-40.08,0-72.88-32.79-72.88-72.88v-271.89c0-40.08,32.79-72.88,72.88-72.88h271.89
		c40.08,0,72.88,32.79,72.88,72.88v271.89C2791.86-278.28,2759.07-245.49,2718.98-245.49z"/>
	<path class="st4" d="M2675.2-426.41L2564.93-366c-7.62,0-50.62-50.84-50.62-58.11V-553.4c0-7.28,6.24-13.23,13.86-13.23h160.29
		c7.62,0,13.86,5.95,13.86,13.23l-12.97,108.06C2689.35-438.06,2682.83-426.41,2675.2-426.41z"/>
	<g>
		<path class="st14" d="M2705.38-582.47c-63.15,0.01-126.3-0.02-189.45,0.1c-2.54,0-5.07,1.31-7.6,2.02
			c-0.83,0.83-1.65,1.64-2.47,2.47c-5.12,5.11-10.23,10.2-15.34,15.31l-9.92,9.92c-0.66,0.66-1.31,1.32-1.96,2
			c-1.6,1.59-3.19,3.18-4.77,4.76c-1.36,1.35-2.7,2.69-4.05,4.05c-3.05,3.05-6.11,6.12-9.15,9.17c-0.44,2.47-1.27,4.93-1.28,7.4
			c-0.07,54.58-0.04,109.15-0.07,163.74c0,2.01-0.19,4.01-0.29,6.02c0.19,2.58,0.36,5.16,0.55,7.73c0.36,0.36,0.72,0.73,1.08,1.1
			h60.29v51.38c3.63-3.39,6.37-5.95,9.12-8.51c0.31-0.35,0.63-0.71,0.94-1.05c1.2-1.39,2.39-2.78,3.59-4.18
			c1.44-1.15,2.9-2.3,4.36-3.46c1.05-1.32,2.11-2.65,3.15-3.97c0.43-0.46,0.87-0.93,1.3-1.39c0.82-0.53,1.63-1.06,2.45-1.59
			c1.37-1.36,2.75-2.71,4.11-4.07c0.03-0.35,0.08-0.71,0.13-1.06c0.74-0.74,1.49-1.47,2.23-2.21c1.05-0.75,2.11-1.49,3.15-2.24
			c0.42-0.72,0.83-1.43,1.25-2.16c0.69-0.39,1.38-0.77,2.06-1.16c0.39-0.68,0.77-1.37,1.16-2.05c1.82-1.52,3.64-3.05,5.46-4.58
			c0.07-0.34,0.11-0.69,0.14-1.05c0.68-0.39,1.38-0.76,2.06-1.15c2.21-1.67,4.42-3.33,6.63-5c11.69-0.09,23.38-0.02,35.04-0.41
			c2.41-0.08,5.26-1.29,7.05-2.92c7.12-6.52,13.9-13.41,20.81-20.17c0.43-0.41,0.85-0.83,1.27-1.23c2.89-2.89,5.77-5.77,8.66-8.64
			c0.41-0.43,0.82-0.85,1.22-1.28c1.48-1.47,2.94-2.93,4.42-4.41c0.83-0.85,1.65-1.7,2.48-2.55c15.7-15.69,31.41-31.38,47.13-47.07
			c0.96-0.98,1.93-1.96,2.9-2.93c0.15-2.19,0.44-4.38,0.44-6.57c0.03-38.02,0.01-76.05,0.03-114.08c0-5.13,0.19-10.27,0.29-15.39
			C2705.79-576.7,2705.58-579.58,2705.38-582.47z M2524.82-303.65c-0.94-0.94-1.87-1.89-2.81-2.83c1.37-0.41,2.71-0.96,4.1-1.16
			c0.41-0.06,0.96,0.92,1.44,1.41C2526.64-305.37,2525.72-304.51,2524.82-303.65z M2681.42-445.34
			c-11.47,11.14-22.55,22.67-34.06,33.75c-1.95,1.89-5.29,3.15-8.04,3.25c-10.65,0.37-21.31-0.02-31.97,0.3
			c-2.41,0.07-5.36,1.25-7.08,2.92c-10.72,10.48-21.16,21.24-31.69,31.91c-0.44-0.25-0.87-0.5-1.31-0.75v-33.93h-45.71v-153.54
			h163.45v5.5c0,33.81-0.06,67.62,0.07,101.42C2685.1-450.75,2684.19-448.03,2681.42-445.34z"/>
		<path class="st15" d="M2702.32-434.84c0.97-0.98,1.93-1.96,2.9-2.94C2704.25-436.8,2703.29-435.82,2702.32-434.84z"/>
		<path class="st16" d="M2459.32-346.62c0.09-0.39,0.17-0.77,0.26-1.16c0.36,0.37,0.72,0.73,1.08,1.1
			C2460.22-346.67,2459.77-346.65,2459.32-346.62z"/>
		<path class="st17" d="M2522.01-306.48c1.36-0.41,2.71-0.97,4.1-1.16c0.41-0.06,0.95,0.91,1.44,1.41
			c-0.91,0.86-1.82,1.72-2.73,2.59C2523.88-304.59,2522.94-305.53,2522.01-306.48z"/>
		<path d="M2633.97-465.79c0-19.92,0-39.84,0-60.04c6.78,0,13.14,0,19.96,0c0,20.17,0,40.38,0,61c-6.32,0-12.67,0-19.02,0
			C2634.59-465.16,2634.28-465.47,2633.97-465.79z"/>
		<path class="st14" d="M2577.45-465.07c0-20.33,0-40.33,0-60.68c6.69,0,13.21,0,20.15,0c0,20.1,0,40.19,0,60.68
			C2591.13-465.07,2584.48-465.07,2577.45-465.07z"/>
		<path class="st18" d="M2633.97-465.79c0.31,0.32,0.62,0.64,0.94,0.96C2634.59-465.16,2634.28-465.47,2633.97-465.79z"/>
	</g>
</g>
</svg>
