<?xml version="1.0" encoding="UTF-8"?>
<svg id="Capa_1" data-name="Capa 1" xmlns="http://www.w3.org/2000/svg" viewBox="0 0 128 132.26">
  <defs>
    <style>
      .cls-1 {
        fill: none;
      }

      .cls-1, .cls-2 {
        stroke: #ec336b;
        stroke-miterlimit: 10;
        stroke-width: .87px;
      }

      .cls-3, .cls-2 {
        fill: #ec336b;
      }
    </style>
  </defs>
  <rect width="128" height="132.26"/>
  <g>
    <path class="cls-3" d="m108.58,12.68l-.02.02s-.02,0-.03-.02h.05Z"/>
    <path class="cls-3" d="m27.37,64.98c-3.55,2.79-7.1,5.6-10.65,8.4-.17.14-.36.25-.52.41-1.07.97-1.09.97-1.67-.36-.43-.99-.69-2.01-.69-3.13.02-8.5.02-17.01.02-25.5,0-8.53,0-17.06,0-25.6,0-1.28.38-2.41.95-3.5.29-.56.56-.58,1.02-.22,2.03,1.66,4.03,3.32,6.1,4.9,3.77,2.87,7.42,5.92,11.15,8.84,2.55,2,5.12,3.98,7.68,5.98,3.64,2.86,7.28,5.73,10.91,8.6,1.28,1.02,1.27,1.04-.02,2.05-2.7,2.09-5.44,4.12-8.06,6.31-2,1.68-4.09,3.22-6.1,4.89-3.3,2.74-6.74,5.27-10.1,7.91Z"/>
    <path class="cls-3" d="m108.77,76.63s.04.1.07.18c-.82.5-1.73.56-2.62.56-27.08,0-54.17,0-81.25-.03-1.84,0-3.67.1-5.51-.05-.54-.05-1.01-.25-1.61-.48,2.11-1.65,4.11-3.21,6.11-4.78,2.62-2.07,5.24-4.12,7.86-6.19,3.57-2.82,7.13-5.66,10.7-8.49,3.68-2.91,7.36-5.83,11.04-8.74.52-.41,1.06-.79,1.55-1.24.42-.37.75-.28,1.15.03,2.17,1.73,4.62,2.5,7.28,2.49,2.53,0,4.89-.71,6.95-2.34.71-.56,1.15-.38,1.74.11,2.34,1.92,4.69,3.82,7.07,5.71,3.16,2.49,6.33,4.95,9.49,7.44,3.5,2.75,6.98,5.51,10.47,8.27,3.17,2.51,6.35,5.03,9.53,7.55Z"/>
    <path class="cls-3" d="m113.08,61.21c0,2.81-.03,5.63.02,8.44.03,1.65-.35,3.11-1.14,4.5-.25.42-.43.49-.74.16-.87-.93-1.93-1.58-2.91-2.36-3.5-2.76-7.01-5.52-10.52-8.28-3.6-2.84-7.17-5.71-10.79-8.5-3.87-3-7.67-6.11-11.5-9.15-1.48-1.17-1.51-1.17,0-2.36,4.04-3.21,8.11-6.37,12.16-9.58,3.22-2.56,6.38-5.22,9.64-7.7,2.82-2.13,5.53-4.4,8.34-6.54,1.87-1.43,3.69-2.94,5.55-4.39.17-.13.38-.64.69-.11.61,1.07,1.18,2.17,1.18,3.49,0,2.26.02,4.51.03,6.76,0,.77,0,1.55.02,2.31v33.01c-.02.1-.02.19-.02.3Z"/>
    <g>
      <path class="cls-1" d="m17.86,12.88c.7.52,1.38,1.03,2.06,1.53-.66-.51-1.35-1.03-2.06-1.53Zm39.2,30.98c-.39-.35-.78-.66-1.19-.98-.2-.16-.4-.32-.61-.47-.37-.29-.74-.56-1.1-.84.84.81,2.53,2.48,4.77,3.61-.66-.36-1.29-.8-1.87-1.32Zm2.56,1.65c-.12-.05-.23-.1-.35-.15.15.08.31.15.47.22-.04-.02-.08-.04-.12-.06Zm.36.15c-.07-.02-.13-.05-.19-.07.12.05.23.11.36.15-.06-.02-.12-.05-.17-.07ZM108.53,12.68s.02,0,.03.02l.02-.02h-.05Z"/>
      <path class="cls-2" d="m108.56,12.7c-12.67,10.67-26.76,21.04-39.44,31.72-1.08.78-2.74,1.72-4.84,1.91-.33.03-.66.05-.96.04-.08,0-.17,0-.26,0-.1,0-.19-.02-.28-.02-.03,0-.07,0-.1,0-.71-.07-1.4-.23-2.06-.44-.22-.07-.43-.15-.65-.24-.12-.05-.23-.1-.36-.15-.12-.05-.23-.1-.35-.15-.12-.05-.22-.11-.34-.17-.66-.36-1.29-.8-1.87-1.32-.39-.35-.78-.66-1.19-.98-.2-.16-.4-.32-.61-.47-.37-.29-.74-.56-1.1-.84,0-.02-.02-.02-.02-.03-5.44-5.23-17.39-14.51-34.08-27.02-.04-.04-.09-.07-.13-.11-.66-.51-1.35-1.03-2.06-1.53.28-.13.55-.24.81-.31.38-.13.74-.19,1.12-.2,11.72-.15,23.44-.05,35.16-.06,2.58,0,5.17,0,7.76,0,15.39.24,30.79.47,45.82.38,0,0,.02,0,.03.02Z"/>
      <path class="cls-1" d="m20.05,14.52c16.69,12.5,28.64,21.79,34.08,27.02-.65-.48-1.29-.97-1.92-1.48-3.49-2.84-7.03-5.6-10.57-8.36-3.53-2.77-7.07-5.53-10.56-8.37-2.63-2.14-5.32-4.18-7.96-6.31-1.01-.83-2.03-1.67-3.08-2.49Z"/>
      <path class="cls-1" d="m59.97,45.66c.22.08.42.16.65.24-.11-.03-.22-.06-.32-.1-.05-.02-.11-.04-.16-.06-.12-.04-.24-.09-.36-.15-.02,0-.03,0-.05-.02-.16-.06-.32-.14-.47-.22.12.05.23.11.35.15.12.05.24.1.36.15Z"/>
      <path class="cls-1" d="m60.62,45.9c.31.1.63.18.95.25-.07-.01-.14-.02-.21-.04-.18-.04-.36-.09-.54-.15-.07-.02-.13-.05-.21-.07Z"/>
      <path class="cls-1" d="m61.9,46.21c.26.05.52.1.78.12-.06,0-.12,0-.18-.02-.2-.02-.4-.07-.6-.11Z"/>
      <path class="cls-1" d="m61.57,46.15c.11.02.22.04.33.06-.11-.02-.22-.03-.33-.06Z"/>
      <path class="cls-1" d="m62.78,46.34c.09,0,.18,0,.28.02h-.07c-.07,0-.14,0-.22-.02Z"/>
      <path class="cls-1" d="m64.28,46.33c2.1-.19,3.76-1.13,4.84-1.91-1.65,1.32-3.61,1.96-5.58,1.96-.07,0-.15,0-.22,0,.31,0,.63,0,.96-.04Z"/>
      <path class="cls-1" d="m62.7,12.3c14.29,0,28.58,0,42.88,0,.31,0,.61,0,.91,0,.12,0,.22,0,.34.02.11,0,.22,0,.33.03.12,0,.22.03.34.05.09,0,.17.03.27.05.12.03.25.06.37.1.13.04.26.08.39.13-15.04.09-30.44-.15-45.82-.38Z"/>
      <path class="cls-1" d="m108.91,12.86c-1.04.88-2.01,1.78-3.04,2.6-2.05,1.62-4.14,3.18-6.2,4.78-2.56,2-5.1,4.02-7.65,6.04-2.58,2.06-5.15,4.14-7.75,6.17-2.91,2.28-5.82,4.53-8.72,6.83-2.14,1.7-4.29,3.43-6.44,5.14,12.68-10.68,26.77-21.05,39.44-31.72.12.05.23.1.35.16Z"/>
      <path class="cls-1" d="m51.64,45.87c-2.7,2.09-5.44,4.12-8.06,6.31-2,1.68-4.09,3.22-6.1,4.89-3.3,2.74-6.74,5.27-10.1,7.91-3.55,2.79-7.1,5.6-10.65,8.4-.17.14-.36.25-.52.41-1.07.97-1.09.97-1.67-.36-.43-.99-.69-2.01-.69-3.13.02-8.5.02-17.01.02-25.5,0-8.53,0-17.06,0-25.6,0-1.28.38-2.41.95-3.5.29-.56.56-.58,1.02-.22,2.03,1.66,4.03,3.32,6.1,4.9,3.77,2.87,7.42,5.92,11.15,8.84,2.55,2,5.12,3.98,7.68,5.98,3.64,2.86,7.28,5.73,10.91,8.6,1.28,1.02,1.27,1.04-.02,2.05Z"/>
    </g>
  </g>
</svg>