<?xml version="1.0" encoding="UTF-8"?>
<svg id="Capa_1" data-name="Capa 1" xmlns="http://www.w3.org/2000/svg" viewBox="0 0 128 132.26">
  <defs>
    <style>
      .cls-1 {
        fill: #fff;
      }

      .cls-2 {
        fill: #0866ff;
      }

      .cls-3 {
        fill: #ecf1f8;
      }

      .cls-4 {
        fill: #0d69ff;
      }

      .cls-5 {
        fill: #f4f8ff;
      }

      .cls-6 {
        fill: #0967ff;
      }

      .cls-7 {
        fill: #1971ff;
      }

      .cls-8 {
        fill: #0765ff;
      }

      .cls-9 {
        fill: #0c68ff;
      }

      .cls-10 {
        fill: #edf1f8;
      }
    </style>
  </defs>
  <rect width="128" height="132.26"/>
  <g>
    <path class="cls-2" d="m6.34,111.17c-.24-.39-.48-.79-.72-1.18,1.39-.55.78-1.42.36-2.26-.17-.34-.31-.69-.52-1-.32-.47-.69-.9-1.04-1.34-.17,0-.35,0-.52,0-.11-.77-.22-1.53-.33-2.3-.08-.29-.16-.57-.24-.86-.7-1.06-.33-2.24-.33-3.37,0-20.61-.02-41.22.01-61.82,0-3.56.22-7.12.33-10.69,1.32-.69,1.33-.79.2-1.73.12-.67.25-1.33.37-2,.54-.33,1.18-.58,1.6-1.03.32-.33.35-.93.54-1.39.32-.82.97-1.7-.43-2.18.35-.6.7-1.2,1.06-1.81,1.02.88,1.31-.22,1.69-.71.36-.47.84-1.2-.26-1.53.13-.18.25-.36.38-.55.61-.22,1.25-.41,1.82-.72.07-.04-.21-.73-.34-1.12.8-.8,1.61-1.6,2.41-2.4.47.06.93.12,1.4.18-.03-.41-.05-.82-.08-1.22.17-.14.34-.28.51-.43.45.13,1.15.51,1.29.36.37-.4.49-1.02.72-1.55.56-.3,1.11-.59,1.67-.89,1.39.88,3.02.19,3.22-1.36.86-.22,1.71-.44,2.57-.67.24.27.48.54.73.81.34-.43.67-.85,1.01-1.28,1.82-.13,3.63-.25,5.45-.38.15,1.18,1.07.89,1.78.89,16.85.01,33.71,0,50.56,0,4.45,0,8.91.03,13.36-.04.52,0,1.04-.51,1.56-.78,1.82.17,3.65.34,5.47.5.35.36.71.72,1.06,1.08.22-.24.44-.48.66-.73.86.19,1.72.38,2.59.57.2,1.55,1.83,2.24,3.22,1.36.56.3,1.11.59,1.67.89.13,1.67.51,1.94,2.04,1.43.16.06.32.13.48.19-.03.41-.05.82-.08,1.23.47-.06.93-.12,1.4-.18.8.8,1.61,1.6,2.41,2.4-.12.39-.4,1.08-.33,1.12.57.31,1.2.49,1.82.72.13.18.25.36.38.55-.18.34-.59.76-.51,1,.31.89.8,1.71,1.98,1.57.08.11.16.22.24.33.08.09.16.19.24.28.08.36.16.73.24,1.09-1.03.66-.41,1.37-.05,2.07.16.3.51.62.47.89-.16,1.06.41,1.36,1.29,1.42.12.76.24,1.53.36,2.29-.19.26-.37.52-.56.78.36.22.71.44,1.07.67.11,3.9.31,7.81.32,11.71.03,19.1.02,38.19.01,57.29,0,1.92.27,3.89-.08,5.74-.5,2.62-1.46,5.16-2.22,7.73-.07.1-.14.2-.21.3-.31.67-.62,1.34-.93,2.02-.24,0-.58-.08-.69.04-.55.61-1.09,1.24-1.51,1.94-.09.14.33.59.51.9-.74,2.06-2.58,3.16-4.03,4.6-1.51-.52-1.95-.21-2.03,1.45,0,0,0,0,0,0-.55.04-1.1.07-1.65.11l.15,1.13c-1.16.99-2.45,1.72-3.98,1.94-.24-1.42-1.16-.77-1.81-.5-.41.17-1.23.55-.25,1.15-.66.23-1.32.47-1.98.7-.22-.34-.44-.67-.66-1.01l-1.05,1.38c-2.02.16-4.03.33-6.05.49,0-1.14-.87-.8-1.46-.8-7.75-.02-15.51-.01-23.26-.01-.1-1.42-.27-2.85-.27-4.27-.02-11.68,0-23.35-.04-35.03,0-.6-.34-1.2-.52-1.8,0-.1,0-.2,0-.3.03-.02.1-.05.1-.07,0-.07-.03-.14-.06-.21.45-.08.89-.21,1.34-.22,4.59-.02,9.17,0,13.76-.03.47,0,.95-.22,1.42-.34.04-.09.08-.19.12-.28.16-.17.32-.33.49-.5-.16-.12-.32-.24-.48-.36,0-.1-.02-.2-.03-.3l.31-.58c.14-.1.27-.19.41-.29-.14-.1-.27-.19-.41-.29.1-.29.19-.59.29-.88.16-.12.32-.23.48-.35-.16-.16-.32-.33-.48-.49.06-.19.12-.38.18-.58.04-.1.07-.19.11-.29.14-.1.27-.19.41-.29-.14-.1-.27-.19-.41-.29.1-.29.19-.58.29-.86.16-.12.32-.24.48-.37-.16-.17-.32-.33-.48-.5.1-.29.19-.58.29-.86.1-.38.19-.76.29-1.14v-.29l.17-.89v-.55c.05-.1.08-.19.11-.29.05-.2.11-.41.16-.61.04-.28.08-.55.12-.83.06-.3.12-.59.18-.89.04-.28.08-.56.11-.83.05-.2.11-.41.16-.61.04-.28.08-.55.13-.83.06-.3.12-.59.18-.89.04-.28.07-.56.11-.84.14-.08.27-.17.41-.25-.16-.11-.32-.21-.47-.32-.09-.02-.18,0-.26.04-.71-.02-1.43-.05-2.14-.05-5.71-.02-11.42-.04-17.13-.06-.08-.08-.17-.15-.25-.23v-1.15c.18-.37.5-.73.52-1.11.06-1.54.03-3.09.03-4.64-.18-.19-.36-.38-.54-.57,0-.19.01-.38.02-.58.27-.24.7-.44.77-.73.19-.75.16-1.54.31-2.3.78-3.84,2.73-6.65,6.77-7.62.29-.07.48-.53.71-.81.2,0,.39,0,.59,0,.87.96,1.47.52,1.98-.39.29-.08.59-.16.88-.24.1.04.19.08.29.12.14.27.29.77.43.77,1.32,0,2.64-.06,3.96-.16.09,0,.14-.4.21-.61.1-.04.19-.08.29-.12.77.11,1.53.23,2.3.34.16.16.33.32.49.48.12-.16.24-.32.37-.48.18-.09.37-.17.55-.26,1.43.26,1.13-.92,1.14-1.56.06-4.54.03-9.09.03-13.64,0-1.33-.79-2.28-1.9-2.57-1.93-.5-3.94-.85-5.93-.96-2.96-.16-5.94-.08-8.91-.03-2.1.03-4.22.02-6.28.34-1.98.31-3.9.98-5.83,1.59-.49.15-.88.64-1.32.97-.19.1-.38.19-.57.29-1.1-.34-3.28.85-3.72,2.03v-.02c-.38.3-.77.6-1.16.9-.1.17-.21.34-.31.5l-2.27,2.31c-.08,0-.16.02-.24.02-1.13-.09-1.2.66-1.2,1.48.02.08,0,.16-.06.22-.07.11-.15.23-.22.34,0,0,.02-.02.02-.02-.42.32-.99.55-1.25.98-1.84,3-2.62,6.38-3.3,9.78-.04.19.27.46.42.69.02.29.03.59.05.88-.08,0-.16,0-.24.02-.19.15-.38.29-.57.44.16.13.32.26.48.39.02.58.03,1.16.05,1.74-.11.1-.22.19-.33.29-.77.38-.77.76,0,1.15.03.1.06.19.09.29-.04.08-.05.16-.04.25.01.17.02.33.03.5-.01.71-.02,1.42-.03,2.12-.2.41-.55.82-.56,1.24-.07,1.57-.1,3.15,0,4.72.08,1.35-.34,1.87-1.76,1.82-2.86-.1-5.72-.03-8.59-.03-.58,0-1.21-.09-1.17.81-.19.11-.39.23-.58.34-.19.37-.54.74-.54,1.12-.04,5.4-.04,10.8,0,16.19,0,.36.39.71.59,1.07.57.03,1.14.08,1.71.08,3.34.03,6.68.06,10.02.08.1,2,.27,3.99.28,5.99.03,11.38,0,22.76.04,34.14,0,.58.36,1.15.55,1.73-.09.18-.18.35-.27.53-.11.08-.22.16-.33.24-.48-.36-.95-1.04-1.43-1.05-5.17-.08-10.35-.04-15.52-.05-.77,0-1.18.31-1.14,1.11-1.82-.16-3.65-.33-5.47-.49-.35-.46-.7-.92-1.05-1.38-.22.34-.44.67-.66,1.01-.48-.16-.97-.33-1.45-.49.12-1.12-.67-1.48-1.52-1.6-.32-.04-.7.42-1.06.66-1.28-.28-2.77-.13-3.46-1.64-.25-.56-.5-1.12-.75-1.68-.33.17-.65.35-.98.52-.19-.1-.38-.19-.58-.29-.02-.46.1-1.24-.1-1.33-.47-.21-1.09-.1-1.64-.13-1.23-1.19-2.47-2.37-3.66-3.59-.23-.23-.25-.67-.37-1.01.19-.26.56-.52.55-.77-.03-1.03-1.25-2.06-2.34-2.08Z"/>
    <path class="cls-1" d="m91.27,67.73c-.04.28-.08.56-.11.83-.06.3-.12.59-.18.89-.04.28-.08.55-.12.83-.09.11-.17.21-.26.32l-.41.28c.13.1.27.19.4.29v.55c-.07.3-.13.59-.18.89v.29c-.1.38-.19.76-.29,1.14-.1.29-.19.58-.29.86,0,.29,0,.57,0,.86-.1.29-.19.58-.29.86-.03.1-.06.19-.09.29-.14.09-.27.19-.41.28l.4.29c-.06.19-.12.38-.18.58-.03.1-.06.19-.1.29-.14.1-.27.19-.41.29.13.1.27.2.4.3l.1-.03c-.1.29-.19.59-.29.88-.03.1-.06.19-.1.29-.07.29-.15.58-.22.87,0,.1.02.2.03.3l-.09-.03c-.43.38-.91.75-.03,1.16-.47.12-.95.34-1.42.34-4.59.03-9.17,0-13.76.03-.45,0-.89.14-1.34.22-.01.09-.03.18-.04.27,0,.1,0,.2,0,.3-.02,9.4-.04,18.81-.05,28.21,0,4.3.03,8.59.05,12.89,0,.29,0,.57-.01.86-7.48,0-14.96,0-22.43,0-.09-.1-.19-.2-.28-.3,0,0,0,0,0,0,.09-.18.18-.35.27-.53.02-.24.07-.47.07-.71,0-13.31,0-26.63,0-39.94,0-.24.09-.58-.03-.7-.24-.23-.6-.34-.91-.51-3.34-.03-6.68-.05-10.02-.08-.57,0-1.14-.05-1.71-.08-.02-6.13-.03-12.25-.05-18.38.19-.11.39-.23.58-.34,3.93,0,7.86,0,11.79,0l.29.06c.09.14.18.28.26.43.06-.06.11-.11.17-.17-.14-.09-.28-.18-.43-.27,0-.1,0-.2,0-.29,0-2.78,0-5.56,0-8.34.01-.71.02-1.42.03-2.13-.01-.17-.02-.33-.03-.5-.02-.09,0-.17.04-.25,1.28-.41.78-1.06.24-1.72-.02-.58-.03-1.16-.05-1.74,0,0,.09.03.09.03.08-.29.16-.58.24-.88-.02-.29-.03-.59-.05-.88l.09.03c.25-.13.51-.26.76-.39-.17-.16-.34-.32-.52-.48.02-.19.04-.38.06-.58.07-.29.14-.58.21-.87l.06-.86c.08-.09.16-.19.23-.28.44-1.27.89-2.55,1.33-3.82.04-.16.08-.32.11-.48h.02c1.52-.37,1.97-1.22,1.26-2.4.17-.44.33-.88.5-1.32,0,0-.02.02-.02.02.07-.11.15-.23.22-.34.06-.06.08-.14.06-.22.4-.49.8-.99,1.2-1.48.08,0,.16-.01.24-.02,1.85-.06,2.24-.46,2.27-2.31.1-.17.21-.34.31-.5.39-.3.78-.6,1.17-.9,0,0-.01.02-.01.02.28-.11.55-.23.83-.34.76.56,1.14.37,1.15-.58.58-.37,1.16-.74,1.74-1.11.19-.1.38-.19.57-.29.38-.08.76-.17,1.14-.25l.54.45c.11-.23.22-.45.32-.68.29-.09.57-.19.86-.28.65.82.93.36,1.15-.33.38-.11.77-.22,1.15-.32.59.95.89.42,1.16-.23l.1-.05.11.03c.34.59.65.68.92-.05l4.02-.57c.18.26.35.52.53.78.3-.26.61-.53.91-.79,1.72,0,3.45,0,5.17,0,.21.24.43.48.64.72l.51-.71c.86.09,1.72.19,2.59.28.26.7.55.71.86.03,1.82.28,3.64.57,5.46.85.27.26.55.53.82.79,0,5.39.01,10.78.02,16.17-.18.09-.37.17-.55.26-.29,0-.57,0-.86,0-.77-.11-1.53-.23-2.3-.34-.17-.29-.33-.81-.53-.83-1.25-.11-2.52-.18-3.77-.11-.31.02-.59.61-.88.94-.29.08-.59.16-.88.24-.38,0-.75-.01-1.13-.02-.15-.15-.3-.3-.44-.45-.14.26-.29.51-.43.77l.03.09c-.2,0-.39,0-.59,0-.09-.01-.19-.02-.28-.03-.1.08-.19.16-.29.23-.29.02-.57.05-.86.07-.29.1-.58.19-.86.29-.1.07-.2.15-.29.22-.29-.16-.75-.51-.82-.44-.27.26-.42.65-.61.99-.77.69-1.54,1.39-2.31,2.08-.93-.07-.87.57-.84,1.18-.4,1.14-.81,2.28-1.21,3.42-.08.39-.16.77-.23,1.16-.02.28-.04.57-.05.85-.16.12-.32.25-.48.37.16.16.32.33.48.49.03.19.06.38.1.58,0,.19-.01.38-.02.58,0,.29,0,.57,0,.86,0,1.82,0,3.64,0,5.46v1.15c.09.08.17.15.26.23,5.71.02,11.42.04,17.13.06.71,0,1.43.03,2.14.05.08.08.16.16.24.23.03.1.06.19.09.29-.04.28-.07.56-.11.84-.06.3-.12.59-.18.89-.04.28-.08.55-.13.83-.05.2-.11.41-.16.61Z"/>
    <path class="cls-2" d="m98.12,2.83c-.52.27-1.04.77-1.56.78-4.45.06-8.91.04-13.36.04-16.85,0-33.71,0-50.56,0-.71,0-1.63.29-1.78-.89.49-.08.98-.24,1.47-.24,21.39-.01,42.77-.01,64.16,0,.54,0,1.09.21,1.63.32Z"/>
    <path class="cls-2" d="m72.83,124.64c7.75,0,15.51,0,23.26.01.59,0,1.46-.34,1.46.8-8.24,0-16.48,0-24.72,0,0-.27,0-.54,0-.81Z"/>
    <path class="cls-2" d="m30.86,125.46c-.04-.8.36-1.11,1.14-1.11,5.17.01,10.35-.02,15.52.05.48,0,.95.68,1.43,1.05-6.03,0-12.06,0-18.08,0Z"/>
    <path class="cls-2" d="m5.62,18.01c1.4.48.75,1.35.43,2.18-.18.47-.22,1.06-.54,1.39-.43.45-1.06.7-1.6,1.03.57-1.53,1.14-3.07,1.72-4.6Z"/>
    <path class="cls-2" d="m4.42,105.39c.35.45.72.88,1.04,1.34.21.31.35.66.52,1,.42.84,1.02,1.71-.36,2.26-.49-1.34-.98-2.69-1.47-4.03.09-.19.18-.38.27-.57Z"/>
    <path class="cls-2" d="m124.79,22.61c-.88-.06-1.44-.36-1.29-1.42.04-.27-.32-.59-.47-.89-.36-.69-.98-1.4.05-2.07.13.21.27.43.4.64.07.1.14.2.21.3.38.96.77,1.92,1.15,2.88,0,.09,0,.18,0,.26-.02.1-.04.2-.05.29Z"/>
    <path class="cls-2" d="m6.34,111.17c1.09.02,2.3,1.05,2.34,2.08,0,.25-.36.52-.55.77-.6-.95-1.19-1.9-1.79-2.85Z"/>
    <path class="cls-2" d="m120.86,114.02c-.18-.31-.6-.76-.51-.9.42-.7.96-1.33,1.51-1.94.11-.12.46-.03.69-.04,0,.1,0,.19,0,.29-.08.1-.16.19-.24.29-.48.77-.97,1.54-1.45,2.31Z"/>
    <path class="cls-2" d="m8.1,13.97c1.11.33.63,1.06.26,1.53-.38.49-.67,1.59-1.69.71.47-.75.95-1.49,1.42-2.24Z"/>
    <path class="cls-2" d="m21.09,4.26c-.2,1.55-1.83,2.24-3.22,1.36,1.07-.45,2.15-.91,3.22-1.36Z"/>
    <path class="cls-2" d="m111.11,5.62c-1.4.87-3.02.19-3.22-1.36,1.07.45,2.15.91,3.22,1.36Z"/>
    <path class="cls-2" d="m122.36,16.54c-1.18.14-1.67-.68-1.98-1.57-.09-.24.32-.66.51-1,.49.86.98,1.71,1.47,2.57Z"/>
    <path class="cls-2" d="m19.65,123.16c.36-.23.74-.7,1.06-.66.85.12,1.63.48,1.52,1.6-.86-.31-1.72-.63-2.57-.94Z"/>
    <path class="cls-2" d="m107.28,123.89c-.98-.61-.16-.99.25-1.15.65-.26,1.57-.92,1.81.5-.69.22-1.37.43-2.06.65Z"/>
    <path class="cls-2" d="m114.81,120.07c.08-1.66.51-1.97,2.03-1.45-.68.48-1.35.97-2.03,1.45Z"/>
    <path class="cls-2" d="m120.51,13.42c-.61-.22-1.25-.41-1.82-.72-.07-.04.21-.73.33-1.12.5.61.99,1.23,1.48,1.84Z"/>
    <path class="cls-2" d="m9.96,11.59c.12.39.41,1.08.34,1.12-.57.31-1.2.49-1.82.72.49-.61.99-1.22,1.48-1.84Z"/>
    <path class="cls-2" d="m12.15,118.62c.56.02,1.17-.09,1.64.13.19.09.07.86.1,1.33-.58-.48-1.16-.97-1.74-1.45Z"/>
    <path class="cls-2" d="m114.81,7.94c-1.52.51-1.9.24-2.04-1.43.68.48,1.36.95,2.04,1.43Z"/>
    <path class="cls-2" d="m16.2,6.51c-.22.53-.35,1.16-.72,1.55-.14.15-.84-.22-1.29-.36.67-.4,1.34-.8,2-1.2Z"/>
    <path class="cls-2" d="m113.32,121.3l-.15-1.13c.55-.04,1.1-.07,1.65-.11-.5.41-1,.82-1.5,1.24Z"/>
    <path class="cls-2" d="m13.69,8.13c.03.41.05.82.08,1.22-.47-.06-.93-.12-1.4-.18.44-.35.88-.7,1.32-1.05Z"/>
    <path class="cls-2" d="m116.61,9.18c-.47.06-.93.12-1.4.18.03-.41.05-.82.08-1.23.44.35.88.7,1.32,1.05Z"/>
    <path class="cls-2" d="m14.47,120.36c.33-.17.65-.35.98-.52.25.56.5,1.12.75,1.68-.58-.38-1.15-.77-1.73-1.15Z"/>
    <path class="cls-2" d="m23.68,124.59c.22-.34.44-.67.66-1.01.35.46.7.92,1.05,1.38-.57-.12-1.14-.25-1.71-.37Z"/>
    <path class="cls-2" d="m103.59,124.96l1.05-1.38c.22.34.44.67.66,1.01-.57.12-1.14.25-1.71.37Z"/>
    <path class="cls-2" d="m25.4,3.12c-.34.43-.67.85-1.01,1.28-.24-.27-.48-.54-.73-.81.58-.16,1.16-.31,1.74-.47Z"/>
    <path class="cls-2" d="m105.3,3.69c-.22.24-.44.48-.66.73-.35-.36-.71-.72-1.06-1.08.57.12,1.14.24,1.72.36Z"/>
    <path class="cls-2" d="m3.53,24.61c1.13.94,1.12,1.04-.2,1.73.07-.58.13-1.16.2-1.73Z"/>
    <path class="cls-2" d="m125.66,26.35c-.36-.22-.71-.44-1.07-.67.19-.26.37-.52.56-.78.17.48.34.96.51,1.44Z"/>
    <path class="cls-6" d="m72.83,124.64c0,.27,0,.54,0,.81-.28.01-.56.03-.84.04,0-.29,0-.57.01-.86.28,0,.55,0,.83,0Z"/>
    <path class="cls-9" d="m3.32,102.22c.08.29.16.57.24.86-.08-.29-.16-.57-.24-.86Z"/>
    <path class="cls-4" d="m4.42,105.39c-.09.19-.18.38-.27.57-.08-.19-.17-.38-.25-.57.17,0,.35,0,.52,0Z"/>
    <path class="cls-3" d="m122.31,111.71c.08-.1.16-.19.24-.29-.08.1-.16.19-.24.29Z"/>
    <path class="cls-3" d="m123.48,109.12c.07-.1.14-.2.21-.3-.07.1-.14.2-.21.3Z"/>
    <path class="cls-9" d="m124.85,22.31c0-.09,0-.18,0-.26.08.04.15.08.23.13-.07.05-.15.09-.22.14Z"/>
    <path class="cls-10" d="m123.69,19.18c-.07-.1-.14-.2-.21-.3.07.1.14.2.21.3Z"/>
    <path class="cls-10" d="m122.84,17.15c-.08-.09-.16-.19-.24-.28.08.09.16.19.24.28Z"/>
    <path class="cls-8" d="m49.27,125.21c.09.1.19.2.28.3-.09-.1-.19-.2-.28-.3Z"/>
    <path class="cls-8" d="m75.41,25.54l-4.02.57c-.31.02-.61.03-.92.05l-.11-.03s-.1.05-.1.05c-.39.08-.78.15-1.16.23-.38.11-.77.22-1.15.32-.38.11-.77.22-1.15.33-.29.09-.57.19-.86.28-.29.08-.58.15-.86.23-.38.08-.76.17-1.14.25.44-.33.83-.82,1.32-.97,1.92-.6,3.85-1.28,5.83-1.59,2.06-.32,4.18-.3,6.28-.34,2.97-.05,5.95-.13,8.91.03,1.99.1,4,.46,5.93.96,1.12.29,1.9,1.23,1.9,2.57,0,4.55.03,9.09-.03,13.64,0,.64.29,1.82-1.14,1.56,0-5.39-.01-10.78-.02-16.17-.27-.26-.55-.53-.82-.79-1.82-.28-3.64-.57-5.46-.85-.29,0-.57-.02-.86-.03-.86-.09-1.72-.19-2.59-.28-.38,0-.77,0-1.15,0-1.72,0-3.45,0-5.17,0-.48,0-.96,0-1.44,0Z"/>
    <path class="cls-8" d="m48.68,82.83c.31.16.67.27.91.51.12.12.03.46.03.7,0,13.31,0,26.63,0,39.94,0,.24-.05.47-.07.71-.19-.58-.55-1.15-.55-1.73-.03-11.38-.01-22.76-.04-34.14,0-2-.18-3.99-.28-5.99Z"/>
    <path class="cls-2" d="m72.83,124.64c-.28,0-.55,0-.83,0-.02-4.3-.05-8.59-.05-12.89,0-9.4.03-18.81.05-28.21.18.6.52,1.2.52,1.8.03,11.68.01,23.35.04,35.03,0,1.42.18,2.85.27,4.27Z"/>
    <path class="cls-8" d="m49.26,63.95c-3.93,0-7.86,0-11.79,0-.04-.9.59-.81,1.17-.81,2.86,0,5.73-.07,8.59.03,1.42.05,1.84-.48,1.76-1.82-.09-1.57-.06-3.15,0-4.72.02-.42.37-.83.56-1.24,0,2.78,0,5.56,0,8.34-.1.08-.2.16-.29.24Z"/>
    <path class="cls-8" d="m72.2,52.21c.4-1.14.81-2.28,1.21-3.42.28-.39.56-.79.84-1.18.77-.69,1.54-1.39,2.31-2.08.48-.18.96-.37,1.44-.55.1-.07.2-.15.29-.22.29-.1.58-.19.86-.29.29-.02.57-.05.86-.07.1-.08.19-.16.29-.23.09.01.19.02.28.03-.23.28-.42.74-.71.81-4.04.97-5.99,3.78-6.77,7.62-.15.76-.13,1.55-.31,2.3-.07.29-.51.49-.77.73-.03-.19-.06-.38-.1-.58,0-.29,0-.57,0-.86.02-.28.04-.57.05-.85.08-.39.16-.77.23-1.16Z"/>
    <path class="cls-8" d="m36.89,64.28c.02,6.13.03,12.25.05,18.38-.21-.36-.59-.71-.59-1.07-.04-5.4-.04-10.8,0-16.19,0-.37.35-.75.54-1.12Z"/>
    <path class="cls-8" d="m50.75,44.16l-.06.86c-.07.29-.14.58-.21.87-.02.19-.04.38-.06.58-.08.29-.16.58-.24.88,0,0-.09-.03-.09-.03-.15-.23-.46-.5-.42-.69.68-3.4,1.47-6.77,3.3-9.78.26-.42.82-.66,1.25-.98-.17.44-.33.88-.5,1.32-.42.8-.84,1.59-1.26,2.39,0,0-.02,0-.02,0-.04.16-.08.32-.11.48-.44,1.27-.89,2.55-1.33,3.82-.08.09-.16.19-.23.28Z"/>
    <path class="cls-1" d="m84.04,43.58c.29-.33.57-.93.88-.94,1.25-.07,2.52,0,3.77.11.2.02.35.54.53.83-.1.04-.19.08-.29.12-1.53,0-3.07,0-4.6,0-.1-.04-.19-.08-.29-.12Z"/>
    <path class="cls-8" d="m84.32,43.71c1.53,0,3.07,0,4.6,0-.07.21-.13.61-.21.61-1.32.09-2.64.16-3.96.16-.15,0-.29-.5-.43-.77Z"/>
    <path class="cls-2" d="m71.99,62.56c0-1.82,0-3.64,0-5.46.18-.09.37-.19.55-.28,0,1.55.03,3.1-.03,4.64-.01.38-.34.74-.53,1.11Z"/>
    <path class="cls-1" d="m58.17,31.51c-.03,1.86-.42,2.26-2.27,2.31l2.27-2.31Z"/>
    <path class="cls-8" d="m60.47,29.79c-.28.11-.55.23-.83.34.44-1.17,2.62-2.36,3.72-2.03-.58.37-1.16.74-1.74,1.11-.38.19-.77.38-1.15.58Z"/>
    <path class="cls-8" d="m82.02,43.8c.38,0,.75.01,1.13.02-.51.9-1.1,1.35-1.98.39l-.03-.09c.29-.11.59-.21.88-.32Z"/>
    <path class="cls-1" d="m49.84,50.78c.54.66,1.04,1.32-.24,1.72-.03-.1-.06-.19-.09-.29,0-.38,0-.77,0-1.15.11-.1.22-.19.33-.29Z"/>
    <path class="cls-8" d="m55.66,33.85c-.4.49-.8.99-1.2,1.48,0-.82.07-1.57,1.2-1.48Z"/>
    <path class="cls-8" d="m59.65,30.11c-.39.3-.78.6-1.17.9.39-.3.78-.6,1.17-.9Z"/>
    <path class="cls-8" d="m49.51,51.06c0,.38,0,.77,0,1.15-.76-.39-.76-.77,0-1.15Z"/>
    <path class="cls-2" d="m90.12,74.06c.1-.38.19-.76.29-1.14-.1.38-.19.76-.29,1.14Z"/>
    <path class="cls-8" d="m49.79,49.04c-.16-.13-.32-.26-.48-.39.19-.15.38-.29.57-.44,0,.29,0,.57,0,.86,0,0-.09-.03-.09-.03Z"/>
    <path class="cls-2" d="m89.16,78.37c.03-.1.06-.19.1-.29.16.16.32.33.48.49-.16.12-.32.23-.48.35,0,0-.1.03-.1.03,0-.2,0-.4,0-.59Z"/>
    <path class="cls-2" d="m91.55,66.3c.06-.3.12-.59.18-.89-.06.3-.12.59-.18.89Z"/>
    <path class="cls-2" d="m90.98,69.46c.06-.3.12-.59.18-.89-.06.3-.12.59-.18.89Z"/>
    <path class="cls-8" d="m91.51,43.92c.29,0,.57,0,.86,0-.12.16-.24.32-.37.48-.16-.16-.33-.32-.49-.48Z"/>
    <path class="cls-2" d="m90.4,72.62l.17-.89-.17.89Z"/>
    <path class="cls-2" d="m89.83,75.78v-.86c.16.17.32.33.48.5-.16.12-.32.24-.48.37Z"/>
    <path class="cls-2" d="m88.68,81.26c.16.12.32.24.48.36-.16.17-.32.33-.49.5-.03-.29-.06-.59-.09-.88l.09.03Z"/>
    <path class="cls-1" d="m88.59,81.23c.03.29.06.59.09.88-.04.09-.08.19-.12.28-.87-.41-.4-.79.03-1.16Z"/>
    <path class="cls-1" d="m49.88,49.07c0-.29,0-.57,0-.86.08,0,.16-.01.24-.02-.08.29-.16.58-.24.88Z"/>
    <path class="cls-1" d="m88.65,80.96c.07-.29.15-.58.22-.87.03.1.06.19.1.29-.1.19-.21.39-.31.58Z"/>
    <path class="cls-2" d="m72.54,56.81c-.18.09-.37.19-.55.28,0-.29,0-.57,0-.86.18.19.36.38.54.57Z"/>
    <path class="cls-2" d="m88.97,80.38c-.03-.1-.06-.19-.1-.29.03-.1.06-.19.1-.29.14.1.27.19.41.29-.14.1-.27.19-.41.29Z"/>
    <path class="cls-1" d="m89.43,77.51l-.4-.29c.14-.09.27-.19.41-.28l.1.29c-.04.1-.07.19-.11.29Z"/>
    <path class="cls-2" d="m89.54,77.22c-.03-.1-.06-.19-.1-.29.03-.1.06-.19.09-.29.14.1.27.19.41.29-.14.1-.27.19-.41.29Z"/>
    <path class="cls-1" d="m90.59,71.18c-.13-.1-.27-.19-.4-.29l.41-.28c.03.1.06.19.09.29-.03.1-.07.19-.1.29Z"/>
    <path class="cls-2" d="m90.69,70.9c-.03-.1-.06-.19-.09-.29.09-.11.17-.21.26-.32-.05.2-.11.41-.16.61Z"/>
    <path class="cls-2" d="m91.27,67.73c.05-.2.11-.41.16-.61-.05.2-.11.41-.16.61Z"/>
    <path class="cls-2" d="m91.84,64.57c-.03-.1-.06-.19-.09-.29.05-.09.06-.18.03-.28.16.11.32.21.47.32-.14.08-.27.17-.41.25Z"/>
    <path class="cls-5" d="m91.78,64c.03.1.02.19-.03.28-.08-.08-.16-.16-.24-.23.08-.05.17-.06.26-.04Z"/>
    <path class="cls-8" d="m49.56,52.75c.01.17.02.33.03.5-.01-.17-.02-.33-.03-.5Z"/>
    <path class="cls-2" d="m71.99,83.25c.01-.09.03-.18.04-.27.02.07.05.14.06.21,0,.02-.06.05-.1.07Z"/>
    <path class="cls-8" d="m54.4,35.55c-.07.11-.15.23-.22.34.07-.11.15-.23.22-.34Z"/>
    <path class="cls-2" d="m72.25,63.94c-.08-.08-.17-.15-.25-.23.08.08.17.15.25.23Z"/>
    <path class="cls-1" d="m52.44,39.58c.42-.8.84-1.59,1.26-2.39.71,1.18.27,2.03-1.26,2.39Z"/>
    <path class="cls-1" d="m75.41,25.54c.48,0,.96,0,1.44,0-.3.26-.61.53-.91.79-.18-.26-.35-.52-.53-.78Z"/>
    <path class="cls-1" d="m78,44.98c-.48.18-.96.37-1.44.55.19-.34.34-.73.61-.99.07-.07.54.28.82.44Z"/>
    <path class="cls-1" d="m60.47,29.79c.38-.19.77-.38,1.15-.58,0,.94-.39,1.14-1.15.58Z"/>
    <path class="cls-1" d="m82.02,25.53c.38,0,.77,0,1.15,0l-.51.71c-.21-.24-.43-.48-.64-.72Z"/>
    <path class="cls-1" d="m50.17,47.34c.08-.29.16-.58.24-.88.17.16.34.32.52.48-.25.13-.51.26-.76.39Z"/>
    <path class="cls-1" d="m66.79,27.06c.38-.11.77-.22,1.15-.33-.22.68-.5,1.15-1.15.33Z"/>
    <path class="cls-1" d="m74.25,47.61c-.28.39-.56.79-.84,1.18-.03-.61-.08-1.25.84-1.18Z"/>
    <path class="cls-1" d="m82.02,43.8c-.29.11-.59.21-.88.32.14-.26.29-.51.43-.77.15.15.3.3.44.45Z"/>
    <path class="cls-1" d="m65.07,27.57c.29-.08.58-.15.86-.23-.11.23-.22.45-.32.68-.18-.15-.36-.3-.54-.45Z"/>
    <path class="cls-1" d="m72.2,52.21c-.08.39-.16.77-.23,1.16.08-.39.16-.77.23-1.16Z"/>
    <path class="cls-1" d="m92.08,26.7c.27.26.55.53.82.79-.27-.26-.55-.53-.82-.79Z"/>
    <path class="cls-1" d="m69.09,26.41c.39-.08.78-.15,1.16-.23-.28.65-.58,1.17-1.16.23Z"/>
    <path class="cls-1" d="m50.48,45.89c.07-.29.14-.58.21-.87-.07.29-.14.58-.21.87Z"/>
    <path class="cls-1" d="m71.91,54.23c0,.29,0,.57,0,.86-.16-.16-.32-.33-.48-.49.16-.12.32-.25.48-.37Z"/>
    <path class="cls-1" d="m70.47,26.15c.31-.02.61-.03.92-.05-.27.72-.58.64-.92.05Z"/>
    <path class="cls-1" d="m85.76,25.82c.29,0,.57.02.86.03-.31.68-.6.67-.86-.03Z"/>
    <path class="cls-1" d="m79.16,44.47c-.29.1-.58.19-.86.29.29-.1.58-.19.86-.29Z"/>
    <path class="cls-1" d="m89.16,78.37c0,.2,0,.4,0,.59-.13-.1-.27-.2-.4-.3.14-.1.27-.19.41-.29Z"/>
    <path class="cls-1" d="m49.56,64c.14.09.28.18.43.27-.06.06-.11.11-.17.17-.09-.14-.18-.28-.26-.43h0Z"/>
    <path class="cls-1" d="m80.31,44.17c-.1.08-.19.16-.29.23.1-.08.19-.16.29-.23Z"/>
    <path class="cls-1" d="m50.75,44.16l.23-.28-.23.28Z"/>
    <path class="cls-1" d="m52.31,40.06c.04-.16.08-.32.11-.48-.04.16-.08.32-.11.48Z"/>
    <path class="cls-7" d="m49.26,63.95c.1-.08.2-.16.29-.24,0,.1,0,.2,0,.29,0,0,0,0,0,0-.1-.02-.19-.04-.29-.06Z"/>
  </g>
</svg>