<?xml version="1.0" encoding="UTF-8"?>
<svg id="Capa_1" data-name="Capa 1" xmlns="http://www.w3.org/2000/svg" viewBox="0 0 156.26 132.26">
  <defs>
    <style>
      .cls-1 {
        fill: #ec336b;
      }
    </style>
  </defs>
  <rect width="156.26" height="132.26"/>
  <g>
    <path class="cls-1" d="m117.37,45.28c-.72,1.51-1.03,3.16-1.36,4.76-.57,2.7-1.67,5.17-2.71,7.68-1.3,3.15-2.72,6.23-4.22,9.3-2.01,4.14-4.18,8.19-6.4,12.21-2.27,4.11-4.67,8.14-7.16,12.13-1.32,2.11-2.73,4.16-3.96,6.3-1.66,2.88-3.59,5.58-5.34,8.39-1.9,3.04-4.02,5.94-6.01,8.93-.5.75-.8.96-1.4.04-1.99-3.02-4.09-5.97-6.08-8.99-2.9-4.38-5.87-8.72-8.55-13.23-1.56-2.64-3.16-5.27-4.72-7.92-1.87-3.18-3.68-6.4-5.47-9.62-2.82-5.08-5.48-10.28-7.66-15.67-1.36-3.37-2.94-6.69-3.77-10.25-1.23-5.31-1.47-10.63-.35-16.06.68-3.32,1.92-6.33,3.37-9.32,1.67-3.46,3.93-6.45,6.61-9.23,2.26-2.34,4.71-4.4,7.48-6.03,2.57-1.52,5.19-3.03,8.11-3.8,2.57-.68,5.21-1.14,7.81-1.7,2.69,0,5.39,0,8.08,0,.25.1.5.23.76.28,2.67.47,5.39.9,7.91,1.87,3.74,1.44,7.28,3.25,10.47,5.81,1.94,1.56,3.81,3.22,5.4,5.04,1.6,1.83,3.25,3.73,4.3,6.04,1.17,2.59,2.7,4.99,3.35,7.86.43,1.91.71,3.9,1.51,5.72v9.48Zm-37.97-26.76c-12.33-.39-22.72,10.61-22.78,22.37-.06,12.55,10.01,23.12,22.93,23.09,12.14-.03,22.46-10.13,22.64-22.61.18-12.62-11.24-23.47-22.8-22.85Z"/>
    <path class="cls-1" d="m75.03,129.48c-2.75-.58-5.51-1.06-8.26-1.63-2.37-.49-4.4-1.63-6.53-2.63-2.08-.98-3.63-2.56-5.19-4.23-2.46-2.65-2.81-7.44-.76-10.39,2.15-3.09,5.15-4.93,8.42-6.49,1.11-.53,1.89-.48,2.24.91.21.85.91,1.72.77,2.46-.15.76-1.41.68-2.09,1.14-1.83,1.23-3.94,2.09-5.24,4.03-1.1,1.64-1.74,3.18.17,5.51,2.64,3.22,6.31,4.67,10.07,5.61,5.41,1.35,10.95,1.51,16.54.84,2.59-.31,5.13-.62,7.55-1.59,3.09-1.24,6.14-2.57,8.16-5.43.84-1.18,1.08-2.35.44-3.75-.9-1.97-2.57-3.08-4.27-4.18-.85-.55-1.73-1.16-2.68-1.44-1.28-.39-1.31-1.01-.73-1.97.02-.04.03-.09.04-.13.99-2.73,1.17-2.86,3.73-1.45,2.67,1.47,5.33,3.01,7.04,5.68,1.22,1.91,1.82,4.04,1.38,6.28-.73,3.71-3.01,6.29-6.34,7.99-1.07.55-2.02,1.29-3.13,1.79-3.68,1.62-7.59,2.22-11.51,2.8-.31.05-.66-.01-.89.28h-8.91Z"/>
  </g>
</svg>