<svg id="Capa_1" data-name="Capa 1" xmlns="http://www.w3.org/2000/svg" viewBox="0 0 141 98.5"><defs><style>.cls-1{fill:#fefefe;}.cls-2{fill:#013894;}.cls-3{fill:#0d93d3;}.cls-4{fill:#3a4a85;}.cls-5{fill:#349dd4;}.cls-6{fill:#01247d;}</style></defs><title>paypal</title><rect width="141" height="98.5"/><path class="cls-1" d="M121.83,46.05q0,18.24,0,36.48c0,.38-.14.47-.74.47Q64.92,83,8.74,83c-.6,0-.74-.09-.74-.47C8,58.18,9,34.35,9,10c0-.39,2.4-1,3-1H121.11c.6,0,.74.09.74.47Q121.82,27.77,121.83,46.05ZM56.32,21.54h0a.32.32,0,0,0-.22.27.58.58,0,0,0-.19.36,7.4,7.4,0,0,0-.3,1.38v.13l-.42,2.68C54.47,30.9,53.77,35.44,53,40c-.37,2.23-.66,4.48-1.12,6.71-.29,1.37-.37,2.79-.58,4.19s.1,1.61,1.38,1.62l6.22,0-.39,2.7c-.12.79.2,1.16,1,1.16h5.1c1.16,0,1.61-.39,1.79-1.53.37-2.31.73-4.62,1.11-6.93a1.39,1.39,0,0,1,1.57-1.34,21.17,21.17,0,0,0,3-.15,9.62,9.62,0,0,0,6-2.77,11.72,11.72,0,0,0,3-9.17,4.91,4.91,0,0,0-2.63-4.24c-.27-.17-.19-.43-.17-.67,0-.41.1-.82.1-1.24a6.16,6.16,0,0,0-2.84-5.57l0,0v0a1.75,1.75,0,0,0-.71-.46,14,14,0,0,0-6.22-1.22c-3.64,0-7.28,0-10.93,0a1.94,1.94,0,0,0-.95.17l-.25.19C56.37,21.42,56.33,21.46,56.32,21.54ZM33.42,60.91H30.56c-.75,0-1,.23-1.11,1-.41,2.52-.81,5-1.21,7.55-.35,2.19-.7,4.37-1,6.57-.09.64.05.79.68.79s1.5,0,2.24,0,1-.18,1.08-.91c.18-1.12.35-2.25.54-3.38.13-.81.32-1,1.14-1s1.75,0,2.61-.07a5.42,5.42,0,0,0,5-3.87,9.66,9.66,0,0,0,.41-1.75C41.28,63,39.82,61.22,37,61,36,60.9,34.88,60.92,33.42,60.91Zm41,0H71.2c-.72,0-1,.2-1.09.91,0,.16-.07.33-.09.49Q68.93,69.15,67.85,76c-.09.55.07.78.63.8.83,0,1.66,0,2.49,0a.72.72,0,0,0,.84-.69c.18-1.19.39-2.37.58-3.56.14-.87.33-1,1.23-1s1.62,0,2.42-.06a5.39,5.39,0,0,0,4.53-2.64,7.67,7.67,0,0,0,1-3.68,3.63,3.63,0,0,0-3.3-4A21.51,21.51,0,0,0,74.43,60.91ZM49.65,67.25a3.23,3.23,0,0,0-2.13-1.18,6.34,6.34,0,0,0-7.3,7.47A4.07,4.07,0,0,0,41,75.63a4.3,4.3,0,0,0,2.38,1.3A5.69,5.69,0,0,0,47.85,76c.24-.18.48-.36.45.18s.26.61.68.61h2.11a.86.86,0,0,0,1-.83c.08-.53.16-1.06.25-1.59.38-2.39.77-4.78,1.15-7.17.13-.86,0-1-.85-1H51C49.91,66.21,49.91,66.21,49.65,67.25Zm40.64-.06a4.41,4.41,0,0,0-4.24-1.14,6.4,6.4,0,0,0-5.19,7.48,4,4,0,0,0,3.19,3.39,5.44,5.44,0,0,0,4.58-1c.11-.08.18-.24.38-.17-.05.46-.22,1,.53,1.05s1.53,0,2.3,0a.83.83,0,0,0,.84-.76c.11-.63.2-1.27.31-1.9L94.13,67c.09-.58-.11-.81-.69-.82h-1.8C90.61,66.21,90.61,66.21,90.29,67.19Zm-29.9,4.9c-.55-1.81-1.06-3.47-1.54-5.14a.91.91,0,0,0-1-.75H55.81c-1,0-1.13.15-.8,1.12.91,2.65,1.8,5.3,2.72,7.94a.82.82,0,0,1-.12.85c-.82,1.12-1.62,2.26-2.42,3.39-.15.2-.3.42-.17.68s.38.28.64.28c.77,0,1.53,0,2.3,0a1.21,1.21,0,0,0,1.08-.6c.41-.65.87-1.26,1.3-1.89l7.43-10.73c.17-.24.37-.48.19-.79s-.44-.26-.72-.26c-.68,0-1.37,0-2,0a1.35,1.35,0,0,0-1.32.71C62.76,68.6,61.61,70.27,60.39,72.09Zm35.7,4.7H97c.9,0,1.06-.13,1.2-1,.48-3,1-6,1.44-8.94.27-1.66.53-3.31.78-5,.11-.76,0-.89-.76-.89h-1.8c-.89,0-.93,0-1.06.92-.68,4.37-1.38,8.74-2.06,13.11C94.42,76.81,94.19,76.82,96.09,76.79Z" transform="translate(1 1.5)"/><path class="cls-1" d="M55.61,23.68v-.13a1.3,1.3,0,0,0,.3-1.38.58.58,0,0,1,.19-.36c.16,0,.25-.09.22-.27h0l.14-.1.25-.19a.19.19,0,0,0,.17.15,15.55,15.55,0,0,0,2-.08c4.2.08,8.42-.29,12.61.35.7.11,1.5,0,2.06.46s1.28.44,1.92.64v0l0,0c-.07.57.42.86.75,1.09a4.3,4.3,0,0,1,1.43,2,6.05,6.05,0,0,1,0,4.05,13.33,13.33,0,0,0-5.72-1c-2.29-.06-4.59,0-6.89,0a8.48,8.48,0,0,0-1.59.15,1.17,1.17,0,0,0-1.08,1,30.75,30.75,0,0,1-.53,3.59c-.22,1.34-.4,2.68-.65,4a20,20,0,0,1-.45,2.79c-.08.23.08.34.28.41a5.39,5.39,0,0,0-.64,2c-.27,2-.6,4-.92,6-.18,1.14-.39,2.27-.59,3.4-.16-.06-.27-.18-.5-.17-2,0-4.1,0-6.15,0a.75.75,0,0,1-.83-1c.24-1.73.61-3.44.82-5.17.16-1.33.44-2.64.67-3.95s.33-2.49.54-3.73a26.24,26.24,0,0,0,.72-4.43c0-.51.17-1,.22-1.52a1.6,1.6,0,0,1,.21-1A1.64,1.64,0,0,0,55,29.81a2,2,0,0,1,0-.74c.19-1.3.45-2.59.66-3.89C55.73,24.72,56.11,24.16,55.61,23.68Z" transform="translate(1 1.5)"/><path class="cls-1" d="M59,52.31c.2-1.13.41-2.26.59-3.4.32-2,.65-4,.92-6a5.39,5.39,0,0,1,.64-2,8.38,8.38,0,0,1,2.4-.19,29.5,29.5,0,0,0,4.88-.23A11.12,11.12,0,0,0,75.2,37a12.85,12.85,0,0,0,2.92-6.59l.32-.14a4.91,4.91,0,0,1,2.63,4.24,11.72,11.72,0,0,1-3,9.17,9.62,9.62,0,0,1-6,2.77,21.17,21.17,0,0,1-3,.15,1.39,1.39,0,0,0-1.57,1.34c-.38,2.31-.74,4.62-1.11,6.93-.18,1.14-.63,1.53-1.79,1.53h-5.1c-.81,0-1.13-.37-1-1.16l.39-2.7A1.6,1.6,0,0,0,59,52.31Z" transform="translate(1 1.5)"/><path class="cls-1" d="M33.42,60.91c1.46,0,2.53,0,3.61.08,2.79.23,4.25,2,3.85,4.83a9.66,9.66,0,0,1-.41,1.75,5.42,5.42,0,0,1-5,3.87c-.86.06-1.74.06-2.61.07s-1,.17-1.14,1c-.19,1.13-.36,2.26-.54,3.38-.12.73-.33.91-1.08.91s-1.49,0-2.24,0-.77-.15-.68-.79c.33-2.2.68-4.38,1-6.57.4-2.52.8-5,1.21-7.55.11-.73.36-.95,1.11-1Zm.22,7.41a5.22,5.22,0,0,0,1.58-.2c1.41-.35,1.75-2.51,1.21-3.31a1.42,1.42,0,0,0-.92-.58,8.94,8.94,0,0,0-1.79-.13.65.65,0,0,0-.75.64c-.11.84-.26,1.67-.39,2.51C32.41,68.32,32.41,68.32,33.64,68.32Z" transform="translate(1 1.5)"/><path class="cls-1" d="M74.43,60.91a21.51,21.51,0,0,1,3.85.18,3.63,3.63,0,0,1,3.3,4,7.67,7.67,0,0,1-1,3.68A5.39,5.39,0,0,1,76,71.44c-.8.07-1.62,0-2.42.06s-1.09.17-1.23,1c-.19,1.19-.4,2.37-.58,3.56a.72.72,0,0,1-.84.69c-.83,0-1.66,0-2.49,0-.56,0-.72-.25-.63-.8Q68.93,69.15,70,62.31c0-.16.06-.33.09-.49.14-.71.37-.9,1.09-.91Zm-.22,7.41a6.33,6.33,0,0,0,1.3-.1,2.38,2.38,0,0,0,1.77-3,1.41,1.41,0,0,0-1-1,7.78,7.78,0,0,0-2.1-.11c-.35,0-.45.25-.49.54-.13.84-.26,1.68-.4,2.52C73.05,68.33,73.05,68.33,74.21,68.32Z" transform="translate(1 1.5)"/><path class="cls-1" d="M49.65,67.25c.26-1,.26-1,1.35-1h1.61c.85,0,1,.15.85,1-.38,2.39-.77,4.78-1.15,7.17-.09.53-.17,1.06-.25,1.59a.86.86,0,0,1-1,.83H49c-.42,0-.7-.15-.68-.61s-.21-.36-.45-.18a5.69,5.69,0,0,1-4.44.92A4.3,4.3,0,0,1,41,75.63a4.07,4.07,0,0,1-.81-2.09,6.34,6.34,0,0,1,7.3-7.47A3.23,3.23,0,0,1,49.65,67.25Zm-2.71,1.6a3.1,3.1,0,0,0-2.85,1.86c-.66,1.53-.05,3,1.36,3.34a3.13,3.13,0,0,0,3.72-2.41A2.19,2.19,0,0,0,46.94,68.85Zm1.37,6.93s0,0,0,0l0,0,0,.07Z" transform="translate(1 1.5)"/><path class="cls-1" d="M90.29,67.19c.32-1,.32-1,1.35-1h1.8c.58,0,.78.24.69.82L93,74.14c-.11.63-.2,1.27-.31,1.9a.83.83,0,0,1-.84.76c-.77,0-1.54,0-2.3,0S89,76.2,89,75.74c-.2-.07-.27.09-.38.17a5.44,5.44,0,0,1-4.58,1,4,4,0,0,1-3.19-3.39,6.4,6.4,0,0,1,5.19-7.48A4.41,4.41,0,0,1,90.29,67.19Zm-2.66,1.67a3.09,3.09,0,0,0-3.15,3.19,2,2,0,0,0,1.63,2,3.09,3.09,0,0,0,3.72-2.5A2.16,2.16,0,0,0,87.63,68.86Z" transform="translate(1 1.5)"/><path class="cls-1" d="M60.39,72.09c1.22-1.82,2.37-3.49,3.48-5.19a1.35,1.35,0,0,1,1.32-.71c.68,0,1.37,0,2,0,.28,0,.56,0,.72.26s0,.55-.19.79L60.34,78c-.43.63-.89,1.24-1.3,1.89a1.21,1.21,0,0,1-1.08.6c-.77,0-1.53,0-2.3,0-.26,0-.51,0-.64-.28s0-.48.17-.68c.8-1.13,1.6-2.27,2.42-3.39a.82.82,0,0,0,.12-.85C56.81,72.62,55.92,70,55,67.32c-.33-1-.22-1.12.8-1.12h2.06a.91.91,0,0,1,1,.75C59.33,68.62,59.84,70.28,60.39,72.09Z" transform="translate(1 1.5)"/><path class="cls-1" d="M96.09,76.79c-1.9,0-1.67,0-1.39-1.8.68-4.37,1.38-8.74,2.06-13.11.13-.87.17-.92,1.06-.92h1.8c.75,0,.87.13.76.89-.25,1.66-.51,3.31-.78,5-.47,3-1,6-1.44,8.94-.14.9-.3,1-1.2,1Z" transform="translate(1 1.5)"/><path class="cls-1" d="M59,52.31a1.6,1.6,0,0,1,0,.21l-6.22,0c-1.28,0-1.57-.36-1.38-1.62s.29-2.82.58-4.19c.46-2.23.75-4.48,1.12-6.71.75-4.54,1.45-9.08,2.17-13.62l.42-2.68c.5.48.12,1,0,1.5-.21,1.3-.47,2.59-.66,3.89a2,2,0,0,0,0,.74,1.64,1.64,0,0,1-.33,1.66,1.6,1.6,0,0,0-.21,1c-.05.51-.22,1-.22,1.52a26.24,26.24,0,0,1-.72,4.43c-.21,1.24-.33,2.49-.54,3.73s-.51,2.62-.67,3.95c-.21,1.73-.58,3.44-.82,5.17a.75.75,0,0,0,.83,1c2,0,4.1,0,6.15,0C58.7,52.13,58.81,52.25,59,52.31Z" transform="translate(1 1.5)"/><path class="cls-1" d="M75.52,22.77c-.64-.2-1.34-.14-1.92-.64s-1.36-.35-2.06-.46c-4.19-.64-8.41-.27-12.61-.35a15.55,15.55,0,0,1-2,.08.19.19,0,0,1-.17-.15,1.94,1.94,0,0,1,.95-.17c3.65,0,7.29,0,10.93,0a14,14,0,0,1,6.22,1.22A1.75,1.75,0,0,1,75.52,22.77Z" transform="translate(1 1.5)"/><path class="cls-1" d="M78.44,30.26l-.32.14c0-.25-.24-.35-.37-.51a6.05,6.05,0,0,0,0-4.05,4.3,4.3,0,0,0-1.43-2c-.33-.23-.82-.52-.75-1.09a6.16,6.16,0,0,1,2.84,5.57c0,.42-.07.83-.1,1.24C78.25,29.83,78.17,30.09,78.44,30.26Z" transform="translate(1 1.5)"/><path class="cls-1" d="M55.91,22.17a1.3,1.3,0,0,1-.3,1.38A7.4,7.4,0,0,1,55.91,22.17Z" transform="translate(1 1.5)"/><path class="cls-1" d="M56.32,21.54c0,.18-.06.26-.22.27A.32.32,0,0,1,56.32,21.54Z" transform="translate(1 1.5)"/><path class="cls-1" d="M56.46,21.44l-.14.1C56.33,21.46,56.37,21.42,56.46,21.44Z" transform="translate(1 1.5)"/><path class="cls-1" d="M77.75,29.89c.13.16.35.26.37.51A12.85,12.85,0,0,1,75.2,37a11.12,11.12,0,0,1-6.8,3.49,29.5,29.5,0,0,1-4.88.23,8.38,8.38,0,0,0-2.4.19c-.2-.07-.36-.18-.28-.41a20,20,0,0,0,.45-2.79c.25-1.33.43-2.67.65-4a30.75,30.75,0,0,0,.53-3.59,1.17,1.17,0,0,1,1.08-1,8.48,8.48,0,0,1,1.59-.15c2.3,0,4.6-.05,6.89,0A13.33,13.33,0,0,1,77.75,29.89Z" transform="translate(1 1.5)"/><path class="cls-1" d="M33.64,68.32c-1.23,0-1.23,0-1.06-1.07.13-.84.28-1.67.39-2.51a.65.65,0,0,1,.75-.64,8.94,8.94,0,0,1,1.79.13,1.42,1.42,0,0,1,.92.58c.54.8.2,3-1.21,3.31A5.22,5.22,0,0,1,33.64,68.32Z" transform="translate(1 1.5)"/><path class="cls-1" d="M74.21,68.32c-1.16,0-1.16,0-1-1.14.14-.84.27-1.68.4-2.52,0-.29.14-.53.49-.54a7.78,7.78,0,0,1,2.1.11,1.41,1.41,0,0,1,1,1,2.38,2.38,0,0,1-1.77,3A6.33,6.33,0,0,1,74.21,68.32Z" transform="translate(1 1.5)"/><path class="cls-1" d="M46.94,68.85a2.19,2.19,0,0,1,2.23,2.79,3.13,3.13,0,0,1-3.72,2.41c-1.41-.3-2-1.81-1.36-3.34A3.1,3.1,0,0,1,46.94,68.85Z" transform="translate(1 1.5)"/><path class="cls-1" d="M48.31,75.78l0,0,0-.07,0,0S48.33,75.77,48.31,75.78Z" transform="translate(1 1.5)"/><path class="cls-1" d="M87.63,68.86a2.16,2.16,0,0,1,2.2,2.69,3.09,3.09,0,0,1-3.72,2.5,2,2,0,0,1-1.63-2A3.09,3.09,0,0,1,87.63,68.86Z" transform="translate(1 1.5)"/><path class="cls-1" d="M101.59,46.63q0,17.46,0,34.92c0,.37-.08.45-.45.45Q66.88,82,32.6,82c-.37,0-.46-.08-.46-.45q0-35,0-69.93c0-.37.09-.45.46-.45h68.55c.37,0,.45.08.45.45Q101.59,29.13,101.59,46.63ZM60.07,23.45h0a.29.29,0,0,0-.18.22c-.1.07-.11.18-.15.28a6,6,0,0,0-.23,1.1v.09c-.11.71-.22,1.42-.34,2.12-.56,3.59-1.12,7.18-1.71,10.77-.29,1.77-.52,3.55-.89,5.3-.22,1.09-.29,2.22-.46,3.32s.08,1.28,1.1,1.28h4.92c-.11.72-.21,1.43-.31,2.14s.16.92.8.92h4c.91,0,1.27-.31,1.41-1.22.29-1.82.58-3.65.88-5.47a1.09,1.09,0,0,1,1.24-1.06,17,17,0,0,0,2.36-.12A7.62,7.62,0,0,0,77.25,41a9.25,9.25,0,0,0,2.38-7.25,3.9,3.9,0,0,0-2.07-3.36c-.21-.13-.15-.33-.14-.52s.08-.65.08-1a4.88,4.88,0,0,0-2.24-4.41l0,0v0a1.28,1.28,0,0,0-.57-.37,11.08,11.08,0,0,0-4.91-1c-2.88,0-5.76,0-8.64,0a1.54,1.54,0,0,0-.76.14l-.19.14A.08.08,0,0,0,60.07,23.45ZM42,54.58H39.71c-.6,0-.79.18-.89.76-.32,2-.63,4-1,6q-.42,2.59-.81,5.19c-.08.51,0,.62.53.63s1.18,0,1.77,0,.76-.14.85-.72c.15-.89.28-1.78.43-2.67.11-.65.26-.77.91-.78s1.38,0,2.06-.05a4.3,4.3,0,0,0,3.93-3.07,8.13,8.13,0,0,0,.32-1.38,3.07,3.07,0,0,0-3-3.82C44,54.57,43.12,54.59,42,54.58Zm32.42,0H71.83c-.57,0-.75.16-.86.72,0,.13,0,.26-.07.39Q70,61.09,69.18,66.5c-.07.44.06.62.5.63.66,0,1.32,0,2,0a.58.58,0,0,0,.67-.55c.14-.94.3-1.88.45-2.81.11-.69.27-.82,1-.83s1.28,0,1.92,0a4.29,4.29,0,0,0,3.58-2.09,6.05,6.05,0,0,0,.8-2.91,2.86,2.86,0,0,0-2.61-3.18A16.31,16.31,0,0,0,74.39,54.58Zm-19.59,5a2.6,2.6,0,0,0-1.68-.93,5,5,0,0,0-5.78,5.91A3.19,3.19,0,0,0,48,66.21a3.34,3.34,0,0,0,1.89,1,4.48,4.48,0,0,0,3.5-.73c.19-.14.38-.28.36.14s.2.49.54.48c.55,0,1.11,0,1.67,0a.67.67,0,0,0,.76-.65c.06-.42.13-.84.2-1.26.3-1.89.61-3.78.91-5.67.1-.68,0-.79-.67-.79H55.86C55,58.77,55,58.77,54.8,59.59Zm32.13-.05a3.49,3.49,0,0,0-3.35-.89,5.06,5.06,0,0,0-4.11,5.91A3.13,3.13,0,0,0,82,67.24a4.31,4.31,0,0,0,3.62-.8c.09-.06.14-.19.3-.13,0,.36-.17.8.42.82s1.21,0,1.82,0a.66.66,0,0,0,.67-.6l.24-1.5.9-5.62c.07-.46-.09-.64-.54-.65H88C87.18,58.77,87.18,58.77,86.93,59.54ZM63.28,63.42c-.43-1.43-.83-2.74-1.21-4.06a.72.72,0,0,0-.78-.6c-.54,0-1.08,0-1.62,0-.81,0-.9.12-.63.89q1.07,3.14,2.14,6.27a.64.64,0,0,1-.09.68c-.65.88-1.28,1.78-1.92,2.68-.11.16-.23.33-.13.54s.31.22.51.22c.6,0,1.21,0,1.82,0a.92.92,0,0,0,.85-.47c.32-.51.69-1,1-1.5q2.94-4.24,5.87-8.48c.14-.19.3-.38.15-.62s-.35-.21-.57-.21c-.54,0-1.08,0-1.62,0a1,1,0,0,0-1,.56C65.16,60.66,64.25,62,63.28,63.42Zm28.23,3.72h.69c.71,0,.84-.11,1-.82l1.14-7.07c.21-1.31.42-2.62.61-3.93.09-.6,0-.7-.6-.7H92.88c-.7,0-.73,0-.84.72C91.5,58.8,91,62.25,90.42,65.71,90.19,67.15,90,67.16,91.51,67.14Z" transform="translate(1 1.5)"/><path class="cls-2" d="M59.51,25.14v-.09a1,1,0,0,0,.23-1.1c0-.1,0-.21.15-.28s.2-.08.18-.22h0l.11-.08.19-.14a.18.18,0,0,0,.14.11,10.92,10.92,0,0,0,1.62-.06c3.32.06,6.66-.23,10,.28.56.08,1.19,0,1.63.36s1,.35,1.52.51v0l0,0c-.06.46.33.68.59.87A3.46,3.46,0,0,1,77,26.86a4.72,4.72,0,0,1,0,3.19,10.59,10.59,0,0,0-4.52-.76c-1.81-.05-3.63,0-5.45,0a6.72,6.72,0,0,0-1.26.12.92.92,0,0,0-.85.82,24.29,24.29,0,0,1-.42,2.84c-.17,1.06-.31,2.12-.51,3.17a16.68,16.68,0,0,1-.36,2.21c-.06.18.07.27.22.32a4.15,4.15,0,0,0-.5,1.55c-.21,1.6-.47,3.19-.73,4.79-.14.89-.31,1.79-.46,2.68-.13,0-.22-.14-.4-.14-1.62,0-3.24,0-4.86,0a.59.59,0,0,1-.66-.75c.19-1.37.48-2.72.65-4.09.13-1,.35-2.08.53-3.12s.26-2,.42-3a21.66,21.66,0,0,0,.58-3.5c0-.4.13-.8.17-1.21a1.25,1.25,0,0,1,.17-.74A1.31,1.31,0,0,0,59,30a1.67,1.67,0,0,1,0-.59c.15-1,.35-2,.52-3.07C59.6,26,59.9,25.52,59.51,25.14Z" transform="translate(1 1.5)"/><path class="cls-3" d="M62.17,47.78c.15-.89.32-1.79.46-2.68.26-1.6.52-3.19.73-4.79a4.15,4.15,0,0,1,.5-1.55,6.72,6.72,0,0,1,1.9-.15,23.71,23.71,0,0,0,3.86-.18A8.86,8.86,0,0,0,75,35.67a10.18,10.18,0,0,0,2.3-5.21l.26-.12a3.9,3.9,0,0,1,2.07,3.36A9.25,9.25,0,0,1,77.25,41a7.62,7.62,0,0,1-4.71,2.19,17,17,0,0,1-2.36.12,1.09,1.09,0,0,0-1.24,1.06c-.3,1.82-.59,3.65-.88,5.47-.14.91-.5,1.22-1.41,1.22h-4c-.64,0-.9-.29-.8-.92s.2-1.42.31-2.14A1.24,1.24,0,0,1,62.17,47.78Z" transform="translate(1 1.5)"/><path class="cls-4" d="M42,54.58c1.15,0,2,0,2.85.06a3.07,3.07,0,0,1,3,3.82,8.13,8.13,0,0,1-.32,1.38,4.3,4.3,0,0,1-3.93,3.07c-.68.05-1.37,0-2.06.05s-.8.13-.91.78c-.15.89-.28,1.78-.43,2.67-.09.58-.26.72-.85.72s-1.18,0-1.77,0S37,67,37.06,66.5q.39-2.6.81-5.19c.32-2,.63-4,1-6,.1-.58.29-.75.89-.76Zm.17,5.86a4.2,4.2,0,0,0,1.25-.16c1.11-.27,1.38-2,1-2.62a1.19,1.19,0,0,0-.73-.46,6.74,6.74,0,0,0-1.42-.09.5.5,0,0,0-.59.5c-.09.66-.21,1.32-.31,2C41.16,60.44,41.17,60.44,42.14,60.44Z" transform="translate(1 1.5)"/><path class="cls-5" d="M74.39,54.58a16.31,16.31,0,0,1,3,.15A2.86,2.86,0,0,1,80,57.91a6.05,6.05,0,0,1-.8,2.91,4.29,4.29,0,0,1-3.58,2.09c-.64.05-1.28,0-1.92,0s-.86.14-1,.83c-.15.93-.31,1.87-.45,2.81a.58.58,0,0,1-.67.55c-.65,0-1.31,0-2,0-.44,0-.57-.19-.5-.63q.87-5.4,1.72-10.81c0-.13,0-.26.07-.39.11-.56.29-.72.86-.72Zm-.18,5.86a5.88,5.88,0,0,0,1-.08A1.88,1.88,0,0,0,76.64,58a1.1,1.1,0,0,0-.83-.82,5.8,5.8,0,0,0-1.66-.09c-.27,0-.35.19-.39.42-.1.67-.21,1.33-.31,2C73.3,60.44,73.3,60.44,74.21,60.44Z" transform="translate(1 1.5)"/><path class="cls-4" d="M54.8,59.59c.2-.82.2-.82,1.06-.82h1.28c.67,0,.77.11.67.79-.3,1.89-.61,3.78-.91,5.67-.07.42-.14.84-.2,1.26a.67.67,0,0,1-.76.65c-.56,0-1.12,0-1.67,0-.34,0-.55-.12-.54-.48s-.17-.28-.36-.14a4.48,4.48,0,0,1-3.5.73,3.34,3.34,0,0,1-1.89-1,3.19,3.19,0,0,1-.64-1.64,5,5,0,0,1,5.78-5.91A2.6,2.6,0,0,1,54.8,59.59Zm-2.15,1.27a2.44,2.44,0,0,0-2.25,1.47A1.79,1.79,0,0,0,51.47,65a2.49,2.49,0,0,0,3-1.91A1.73,1.73,0,0,0,52.65,60.86Zm1.09,5.48,0,0s0,0,0,0l0,0Z" transform="translate(1 1.5)"/><path class="cls-5" d="M86.93,59.54c.25-.77.25-.77,1.06-.77h1.43c.45,0,.61.19.54.65L89.06,65l-.24,1.5a.66.66,0,0,1-.67.6c-.61,0-1.21,0-1.82,0s-.45-.46-.42-.82c-.16-.06-.21.07-.3.13a4.31,4.31,0,0,1-3.62.8,3.13,3.13,0,0,1-2.52-2.68,5.06,5.06,0,0,1,4.11-5.91A3.49,3.49,0,0,1,86.93,59.54Zm-2.11,1.32a2.44,2.44,0,0,0-2.48,2.53A1.6,1.6,0,0,0,83.62,65a2.43,2.43,0,0,0,2.94-2A1.71,1.71,0,0,0,84.82,60.86Z" transform="translate(1 1.5)"/><path class="cls-4" d="M63.28,63.42c1-1.44,1.88-2.76,2.76-4.1a1,1,0,0,1,1-.56c.54,0,1.08,0,1.62,0,.22,0,.45,0,.57.21s0,.43-.15.62q-2.93,4.24-5.87,8.48c-.34.5-.71,1-1,1.5a.92.92,0,0,1-.85.47c-.61,0-1.22,0-1.82,0-.2,0-.41,0-.51-.22s0-.38.13-.54c.64-.9,1.27-1.8,1.92-2.68a.64.64,0,0,0,.09-.68Q60.1,62.79,59,59.65c-.27-.77-.18-.89.63-.89.54,0,1.08,0,1.62,0a.72.72,0,0,1,.78.6C62.45,60.68,62.85,62,63.28,63.42Z" transform="translate(1 1.5)"/><path class="cls-5" d="M91.51,67.14c-1.5,0-1.32,0-1.09-1.43C91,62.25,91.5,58.8,92,55.34c.11-.68.14-.72.84-.72H94.3c.59,0,.69.1.6.7-.19,1.31-.4,2.62-.61,3.93l-1.14,7.07c-.11.71-.24.82-1,.82Z" transform="translate(1 1.5)"/><path class="cls-4" d="M62.17,47.78a1.24,1.24,0,0,0,0,.16H57.21c-1,0-1.24-.28-1.1-1.28s.24-2.23.46-3.32c.37-1.75.6-3.53.89-5.3.59-3.59,1.15-7.18,1.71-10.77.12-.7.23-1.41.34-2.12.39.38.09.83,0,1.19-.17,1-.37,2.05-.52,3.07A1.67,1.67,0,0,0,59,30a1.31,1.31,0,0,1-.26,1.32,1.25,1.25,0,0,0-.17.74c0,.41-.17.81-.17,1.21a21.66,21.66,0,0,1-.58,3.5c-.16,1-.25,2-.42,3s-.4,2.07-.53,3.12c-.17,1.37-.46,2.72-.65,4.09a.59.59,0,0,0,.66.75c1.62,0,3.24,0,4.86,0C62,47.64,62,47.74,62.17,47.78Z" transform="translate(1 1.5)"/><path class="cls-4" d="M75.25,24.43c-.5-.16-1.06-.11-1.52-.51s-1.07-.28-1.63-.36c-3.31-.51-6.65-.22-10-.28a10.92,10.92,0,0,1-1.62.06.18.18,0,0,1-.14-.11,1.54,1.54,0,0,1,.76-.14c2.88,0,5.76,0,8.64,0a11.08,11.08,0,0,1,4.91,1A1.28,1.28,0,0,1,75.25,24.43Z" transform="translate(1 1.5)"/><path class="cls-4" d="M77.56,30.34l-.26.12c0-.2-.18-.28-.29-.41a4.72,4.72,0,0,0,0-3.19,3.46,3.46,0,0,0-1.13-1.56c-.26-.19-.65-.41-.59-.87a4.88,4.88,0,0,1,2.24,4.41c0,.33,0,.65-.08,1S77.35,30.21,77.56,30.34Z" transform="translate(1 1.5)"/><path class="cls-4" d="M59.74,24a1,1,0,0,1-.23,1.1A6,6,0,0,1,59.74,24Z" transform="translate(1 1.5)"/><path class="cls-4" d="M60.07,23.45c0,.14,0,.21-.18.22A.29.29,0,0,1,60.07,23.45Z" transform="translate(1 1.5)"/><path class="cls-4" d="M60.18,23.37l-.11.08A.08.08,0,0,1,60.18,23.37Z" transform="translate(1 1.5)"/><path class="cls-6" d="M77,30.05c.11.13.28.21.29.41A10.18,10.18,0,0,1,75,35.67a8.86,8.86,0,0,1-5.38,2.76,23.71,23.71,0,0,1-3.86.18,6.72,6.72,0,0,0-1.9.15c-.15,0-.28-.14-.22-.32A16.68,16.68,0,0,0,64,36.23c.2-1,.34-2.11.51-3.17a24.29,24.29,0,0,0,.42-2.84.92.92,0,0,1,.85-.82A6.72,6.72,0,0,1,67,29.28c1.82,0,3.64,0,5.45,0A10.59,10.59,0,0,1,77,30.05Z" transform="translate(1 1.5)"/><path class="cls-1" d="M42.14,60.44c-1,0-1,0-.84-.85.1-.66.22-1.32.31-2a.5.5,0,0,1,.59-.5,6.74,6.74,0,0,1,1.42.09,1.19,1.19,0,0,1,.73.46c.42.63.15,2.35-1,2.62A4.2,4.2,0,0,1,42.14,60.44Z" transform="translate(1 1.5)"/><path class="cls-1" d="M74.21,60.44c-.91,0-.91,0-.76-.91.1-.66.21-1.32.31-2,0-.23.12-.42.39-.42a5.8,5.8,0,0,1,1.66.09,1.1,1.1,0,0,1,.83.82,1.88,1.88,0,0,1-1.4,2.33A5.88,5.88,0,0,1,74.21,60.44Z" transform="translate(1 1.5)"/><path class="cls-1" d="M52.65,60.86a1.73,1.73,0,0,1,1.77,2.2,2.49,2.49,0,0,1-3,1.91,1.79,1.79,0,0,1-1.07-2.64A2.44,2.44,0,0,1,52.65,60.86Z" transform="translate(1 1.5)"/><path class="cls-1" d="M53.74,66.34l0,0,0,0s0,0,0,0Z" transform="translate(1 1.5)"/><path class="cls-1" d="M84.82,60.86A1.71,1.71,0,0,1,86.56,63a2.43,2.43,0,0,1-2.94,2,1.6,1.6,0,0,1-1.28-1.58A2.44,2.44,0,0,1,84.82,60.86Z" transform="translate(1 1.5)"/></svg>