<?xml version="1.0" encoding="UTF-8"?>
<svg id="Capa_1" data-name="Capa 1" xmlns="http://www.w3.org/2000/svg" viewBox="0 0 156.26 132.26">
  <defs>
    <style>
      .cls-1 {
        fill: #ec336b;
        stroke: #ec336b;
        stroke-miterlimit: 10;
      }
    </style>
  </defs>
  <rect width="156.26" height="132.26"/>
  <path class="cls-1" d="m123.55,100.44c-.69,3.66-1.91,7.13-3.96,10.23-1.09,1.65-2.52,3.09-4.03,4.38-2.06,1.76-4.31,3.24-6.86,4.1-3.76,1.27-7.58,1.52-11.53.55-3.12-.77-6.05-1.96-8.85-3.43-2.01-1.07-3.93-2.35-5.8-3.69-1.65-1.17-3.26-2.39-4.84-3.63-2.14-1.67-4.14-3.54-6.12-5.39-1.99-1.86-3.93-3.8-5.84-5.74-2.82-2.88-5.59-5.79-8.21-8.84-1.71-1.99-3.56-3.84-5.24-5.85-1.76-2.11-3.42-4.31-5.08-6.5-2.29-3-4.6-5.99-6.81-9.05-1.53-2.1-2.93-4.29-4.35-6.47-1.23-1.89-2.45-3.78-3.62-5.71-1.4-2.32-2.71-4.68-3.89-7.13-.82-1.73-1.6-3.47-2.28-5.26-1.55-4.12-2.84-8.29-2.78-13.27-.15-3.72,1.11-7.56,3.41-11.03,1.25-1.87,2.91-3.42,4.63-4.92,1.58-1.37,3.27-2.52,5.08-3.48,3.75-1.97,7.76-2.99,12.03-2.45,2.5.31,4.47,1.75,5.73,3.83.86,1.4,1.19,3.12,1.71,4.72,1.08,3.31,2.14,6.64,3.2,9.97.78,2.45,1.69,4.83,1.49,7.52-.12,1.73-.75,3.22-1.53,4.64-1.2,2.14-2.79,4-4.72,5.55-.97.79-1.01,1.69-.43,2.78,1.39,2.63,3,5.11,4.62,7.58,1.56,2.39,3.27,4.68,4.94,7.01,1.42,1.99,2.79,4.02,4.33,5.92,1.48,1.81,3.13,3.5,4.74,5.22,1.49,1.59,3,3.16,4.55,4.69,1.68,1.66,3.35,3.34,5.07,4.97,1.68,1.59,3.34,3.17,5.14,4.62.79.63,1.55.57,2.4.03,1.37-.9,2.45-2.18,3.97-2.91,2.03-.98,4.11-1.14,6.31-.88,2.58.3,4.71,1.75,7.05,2.68,2.1.82,4.17,1.73,6.21,2.7,2.35,1.12,4.74,2.13,7.12,3.19,2.02.9,2.82,2.8,3.14,4.82.2,1.27.15,2.61-.1,3.93Z"/>
</svg>