<?xml version="1.0" encoding="UTF-8"?>
<svg id="Capa_1" data-name="Capa 1" xmlns="http://www.w3.org/2000/svg" viewBox="0 0 128 132.26">
  <defs>
    <style>
      .cls-1 {
        fill: #fff;
      }

      .cls-2 {
        fill: #fafafa;
      }

      .cls-3 {
        fill: #040404;
      }

      .cls-4 {
        fill: #131313;
      }

      .cls-5 {
        fill: #a444fe;
      }

      .cls-6 {
        fill: #2a2a2a;
      }

      .cls-7 {
        fill: #010101;
      }
    </style>
  </defs>
  <rect width="128" height="132.26"/>
  <g>
    <rect class="cls-5" x="2.74" y="2.87" width="122.52" height="122.52" rx="21.38" ry="21.38"/>
    <path class="cls-1" d="m91.04,72.31l-32.35,17.72c-2.24,0-14.85-14.91-14.85-17.05v-37.93c0-2.13,1.83-3.88,4.07-3.88h47.02c2.24,0,4.07,1.75,4.07,3.88l-3.81,31.7c0,2.13-1.91,5.55-4.15,5.55Z"/>
    <g>
      <path class="cls-7" d="m99.89,26.53c-18.53,0-37.05,0-55.58.03-.74,0-1.49.38-2.23.59-.24.24-.49.48-.72.72-1.5,1.5-3,2.99-4.5,4.49l-2.91,2.91c-.19.19-.38.39-.58.59-.47.47-.93.93-1.4,1.4-.4.39-.79.79-1.19,1.19-.9.9-1.79,1.8-2.68,2.69-.13.72-.37,1.45-.38,2.17-.02,16.01-.01,32.02-.02,48.03,0,.59-.05,1.18-.08,1.77.05.76.11,1.51.16,2.27.11.11.21.21.32.32h17.69v15.07c1.06-.99,1.87-1.75,2.68-2.5.09-.1.18-.21.27-.31.35-.41.7-.82,1.05-1.23.42-.34.85-.68,1.28-1.02.31-.39.62-.78.93-1.16.13-.14.26-.27.38-.41.24-.16.48-.31.72-.47.4-.4.81-.8,1.21-1.19,0-.1.02-.21.04-.31.22-.22.44-.43.65-.65.31-.22.62-.44.93-.66.12-.21.24-.42.37-.63.2-.11.4-.23.6-.34.11-.2.23-.4.34-.6.53-.45,1.07-.9,1.6-1.34.02-.1.03-.2.04-.31.2-.11.4-.22.6-.34.65-.49,1.3-.98,1.94-1.47,3.43-.03,6.86,0,10.28-.12.71-.02,1.54-.38,2.07-.86,2.09-1.91,4.08-3.93,6.1-5.92.13-.12.25-.24.37-.36.85-.85,1.69-1.69,2.54-2.54.12-.13.24-.25.36-.38.43-.43.86-.86,1.3-1.29.24-.25.49-.5.73-.75,4.61-4.6,9.22-9.21,13.83-13.81.28-.29.57-.58.85-.86.05-.64.13-1.28.13-1.93,0-11.15,0-22.31,0-33.47,0-1.5.05-3.01.08-4.52-.06-.84-.12-1.69-.18-2.54Zm-52.97,81.8c-.27-.27-.55-.55-.82-.83.4-.12.8-.28,1.2-.34.12-.02.28.27.42.41-.27.25-.54.5-.8.76Zm45.94-41.57c-3.36,3.27-6.62,6.65-9.99,9.9-.57.55-1.55.93-2.36.95-3.12.11-6.25,0-9.38.09-.71.02-1.57.37-2.08.86-3.14,3.07-6.21,6.23-9.3,9.36-.13-.07-.26-.15-.38-.22v-9.95h-13.41v-45.04h47.95v1.61c0,9.92-.02,19.84.02,29.75,0,1.1-.26,1.9-1.07,2.68Z"/>
      <path class="cls-2" d="m98.99,69.84c.28-.29.57-.57.85-.86-.28.29-.57.57-.85.86Z"/>
      <path class="cls-4" d="m27.71,95.72l.08-.34c.11.11.21.21.32.32-.13,0-.26.01-.39.02Z"/>
      <path class="cls-3" d="m46.1,107.5c.4-.12.79-.28,1.2-.34.12-.02.28.27.42.41-.27.25-.53.51-.8.76-.27-.28-.55-.55-.82-.83Z"/>
      <path d="m78.94,60.76v-17.61h5.86v17.89h-5.58l-.28-.28Z"/>
      <path class="cls-7" d="m62.36,60.97v-17.8h5.91v17.8h-5.91Z"/>
      <path class="cls-6" d="m78.94,60.76c.09.09.18.19.28.28-.09-.09-.18-.19-.28-.28Z"/>
    </g>
  </g>
</svg>