<?xml version="1.0" encoding="UTF-8"?>
<svg id="Capa_1" data-name="Capa 1" xmlns="http://www.w3.org/2000/svg" viewBox="0 0 128.69 132.26">
  <defs>
    <style>
      .cls-1 {
        fill: #fffeff;
      }
    </style>
  </defs>
  <rect width="128" height="132.26"/>
  <g>
    <rect class="cls-1" x="7.83" y="10.21" width="109.43" height="106.49" rx="3.71" ry="3.71"/>
    <g>
      <path d="m128.69,63.1c0,14.52.01,29.03,0,43.55,0,4.24-1.15,8.22-3.47,11.75-2.36,3.6-5.6,6.32-9.61,7.95-2.9,1.18-5.99,1.65-9.14,1.65-27.96,0-55.93,0-83.89-.01-2.54,0-4.99-.43-7.44-1.21-4.71-1.49-8.2-4.4-10.96-8.4-1.34-1.94-2.29-4.06-2.85-6.29-.48-1.93-.6-3.99-.61-5.99-.03-28.2-.03-56.4,0-84.61,0-3.95.82-7.73,2.86-11.18,1.34-2.27,2.96-4.34,5.07-5.9,2.4-1.78,5.08-3.21,7.99-3.87C18.8.05,21.11.02,23.36.02,51.48,0,79.61,0,107.73.01c4.85,0,9.18,1.61,13,4.55,1.91,1.47,3.56,3.28,4.78,5.32,2.47,4.11,3.19,8.7,3.16,13.47-.07,13.25-.02,26.5-.02,39.74.01,0,.02,0,.04,0Zm-71.19,11.53c1.54,2.14,2.84,4.24,4.43,6.08,1.12,1.3,2.15,2.7,3.14,4.06,1.36,1.88,2.83,3.68,4.14,5.61,1.49,2.19,3.22,4.22,4.81,6.35,1.46,1.96,2.82,4,4.28,5.96,2.17,2.9,4.43,5.74,6.56,8.67.42.57.77.73,1.42.73,9.12-.02,18.24-.01,27.37-.01.28,0,.56,0,.83,0,.6.02.74-.17.51-.78-.3-.81-.93-1.35-1.42-2-1.74-2.32-3.48-4.63-5.22-6.96-1.62-2.17-3.22-4.35-4.85-6.51-1.98-2.63-4-5.23-5.96-7.88-1.56-2.11-3.18-4.18-4.72-6.3-2.05-2.81-4.19-5.55-6.27-8.34-1.56-2.09-3.16-4.16-4.72-6.26-1.51-2.04-2.95-4.13-4.47-6.16-.89-1.19-1.84-2.34-2.79-3.48-.45-.54-.4-.95.09-1.42,1.06-1.03,2.22-2.01,3.1-3.18,1.24-1.66,2.79-3.03,4.18-4.53,1.55-1.68,3.13-3.36,4.7-5.03,3.74-3.99,7.43-8.01,11.21-11.96.67-.7,1.48-1.32,1.98-2.13.71-1.16,1.77-1.98,2.65-2.94,1.41-1.54,2.91-3.02,4.3-4.58,1.44-1.63,3.11-3.05,4.43-4.79.21-.27.68-.46.52-.84-.18-.42-.68-.32-1.07-.32-2.14,0-4.28.01-6.43,0-.48,0-.81.15-1.15.48-1.67,1.63-3.17,3.42-4.76,5.12-1.39,1.5-2.81,2.98-4.14,4.55-1.92,2.28-4.09,4.35-6.16,6.5-3.31,3.43-6.37,7.09-9.8,10.43-.68.67-1.51,1.29-2,2.13-.7,1.21-1.92,1.91-2.74,3.03-.8,1.09-1.95,1.91-2.77,2.99-.47.61-.64.55-1,.04-1.33-1.89-2.78-3.7-4.13-5.57-2.01-2.79-4.12-5.5-6.14-8.28-2-2.74-4.08-5.44-6.17-8.13-1.89-2.44-3.73-4.91-5.57-7.38-1.01-1.35-1.98-2.74-2.99-4.09-.86-1.15-1.76-1.9-3.47-1.86-7.22.16-14.44.08-21.65.1-1.67,0-3.33,0-5,.01-.72,0-.84.33-.42.87,1.36,1.77,2.66,3.59,4.02,5.36,1.02,1.33,1.98,2.69,2.98,4.03,1.36,1.8,2.69,3.62,4.04,5.42,1.63,2.16,3.31,4.29,4.92,6.46,2.01,2.73,3.93,5.52,5.96,8.23,1.83,2.43,3.62,4.89,5.45,7.31,1.9,2.51,3.78,5.04,5.7,7.54,2.02,2.63,3.97,5.31,5.95,7.97.2.27.4.49.05.8-1.23,1.07-2.27,2.32-3.36,3.53-1.53,1.71-3.16,3.33-4.73,5.01-1.44,1.53-2.84,3.09-4.28,4.62-3.51,3.74-7.04,7.46-10.53,11.21-2.04,2.2-4,4.47-6.04,6.66-1.45,1.56-3.01,3.02-4.48,4.56-1.86,1.95-3.69,3.93-5.52,5.91-.19.21-.58.33-.39.86,2.78,0,5.58,0,8.39,0,.28,0,.51-.08.71-.34,1.51-1.93,3.27-3.63,4.93-5.43.77-.84,1.66-1.57,2.33-2.47,1.2-1.63,2.64-3.04,4.01-4.49,1.63-1.72,3.29-3.42,4.92-5.15,2.85-3.03,5.59-6.17,8.51-9.13,1.5-1.52,2.87-3.15,4.37-4.67,1.83-1.84,3.57-3.78,5.41-5.76Z"/>
      <path d="m102.39,105.01c-4.01,0-8.03-.01-12.06.01-.84,0-1.35-.32-1.84-1-1.92-2.66-3.85-5.33-5.91-7.89-2.15-2.68-4.08-5.52-6.25-8.19-1.89-2.33-3.56-4.85-5.42-7.22-2.1-2.67-3.9-5.58-6.06-8.2-1.7-2.07-3.24-4.25-4.87-6.36-1.69-2.19-3.32-4.45-5-6.66-2.6-3.43-5.08-6.94-7.78-10.29-1.66-2.07-3.07-4.35-4.75-6.41-1.66-2.04-3.2-4.17-4.8-6.25-1.74-2.26-3.41-4.57-5.15-6.83-1.83-2.37-3.57-4.81-5.48-7.39.49,0,.82,0,1.16,0,3.85,0,7.69.01,11.54-.01.66,0,1.13.15,1.49.72,1.53,2.46,3.37,4.69,5.15,6.96,1.49,1.91,2.75,3.98,4.26,5.87,1.64,2.06,3.19,4.19,4.75,6.31,2.1,2.85,4.24,5.68,6.37,8.51,1.64,2.19,3.33,4.36,4.99,6.54,1.33,1.76,2.7,3.52,3.96,5.34.98,1.41,2.06,2.76,3.12,4.11,1.54,1.96,2.88,4.08,4.43,6.03,1.69,2.11,3.28,4.3,4.91,6.45,1.34,1.77,2.72,3.52,3.98,5.36.92,1.35,2.02,2.59,2.99,3.91,1.54,2.08,2.96,4.25,4.58,6.25,1.65,2.04,3.18,4.16,4.71,6.28.97,1.34,2.19,2.49,2.99,4.03Z"/>
    </g>
  </g>
</svg>