<?xml version="1.0" encoding="UTF-8"?>
<svg id="Capa_1" data-name="Capa 1" xmlns="http://www.w3.org/2000/svg" viewBox="0 0 128 132.26">
  <defs>
    <style>
      .cls-1 {
        fill: #fffeff;
      }

      .cls-2 {
        fill: #fa0001;
      }
    </style>
  </defs>
  <rect width="128" height="132.26"/>
  <g>
    <rect class="cls-1" x="28.76" y="29.09" width="66.38" height="66.38" rx="17.41" ry="17.41"/>
    <path class="cls-2" d="m67.11,99.37c-11.76.26-23.09,0-34.4-.98-4.48-.39-9.23-.16-13.05-3.11-2.9-2.23-5.43-4.72-6.17-8.73-1.73-9.38-1.97-18.82-1.94-28.3.02-7.71.77-15.35,2.1-22.93.7-3.97,7.07-9.01,11.76-9.62,15.3-1.99,30.68-2.22,46.07-2.03,12.17.14,24.33.63,36.43,2.08,4.96.6,10.7,6.41,11.3,11.55,1.08,9.23,1.9,18.48,1.82,27.8-.06,7.29-.92,14.52-2,21.68-.8,5.35-6.73,10.5-12.81,11.05-13.15,1.19-26.32,1.94-39.13,1.54Zm-11.23-37.61c0,3.47-.07,6.94.03,10.41.05,1.63-.92,3.81.72,4.74,1.58.9,2.77-1.13,4.09-1.93,6.23-3.75,12.46-7.49,18.67-11.27.9-.55,2.28-1.12,2.11-2.22-.15-.94-1.32-1.67-2.35-2.13-2.06-.92-3.88-2.28-5.81-3.42-4.84-2.83-9.45-6.04-14.21-9-2.23-1.39-3.18-.83-3.23,1.88-.08,4.31-.02,8.63-.02,12.95Z"/>
  </g>
</svg>